M48
; DRILL file KiCad 10.0.4 date 2026-07-21T15:01:26
; FORMAT={-:-/ absolute / metric / decimal}
; #@! TF.CreationDate,2026-07-21T15:01:26+02:00
; #@! TF.GenerationSoftware,Kicad,Pcbnew,10.0.4
; #@! TF.FileFunction,Plated,1,2,PTH
FMAT,2
METRIC
; #@! TA.AperFunction,Plated,PTH,ViaDrill
T1C0.300
; #@! TA.AperFunction,Plated,PTH,ViaDrill
T2C0.400
; #@! TA.AperFunction,Plated,PTH,ComponentDrill
T3C0.700
; #@! TA.AperFunction,Plated,PTH,ComponentDrill
T4C1.000
; #@! TA.AperFunction,Plated,PTH,ComponentDrill
T5C1.200
; #@! TA.AperFunction,Plated,PTH,ComponentDrill
T6C1.300
; #@! TA.AperFunction,Plated,PTH,ComponentDrill
T7C1.600
; #@! TA.AperFunction,Plated,PTH,ComponentDrill
T8C1.700
; #@! TA.AperFunction,Plated,PTH,ComponentDrill
T9C2.000
%
G90
G05
T1
X92.42Y-121.42
X92.42Y-123.96
X92.42Y-126.5
X92.42Y-129.04
X92.42Y-131.58
X94.96Y-121.42
X94.96Y-123.96
X94.96Y-126.5
X94.96Y-129.04
X94.96Y-131.58
T2
X112.0Y-91.5
X112.0Y-101.5
X114.5Y-93.0
X115.5Y-78.5
X118.1Y-92.9
X122.1Y-86.4
X124.6Y-81.8
X129.5Y-92.45
X131.5Y-78.5
X133.0Y-92.5
X138.5Y-86.5
X141.5Y-82.0
X145.0Y-96.5
X149.8Y-97.4
X151.6Y-101.2
X151.8Y-107.0
X154.5Y-81.5
X154.5Y-84.0
X154.5Y-90.5
X154.8Y-86.9
X156.5Y-84.5
X159.0Y-95.0
X160.0Y-86.0
X160.5Y-98.0
T3
X154.75Y-101.68
X154.75Y-105.98
X159.55Y-101.68
X159.55Y-105.98
T4
X99.6Y-69.78
X99.6Y-72.32
X99.6Y-74.86
X99.6Y-77.4
X104.75Y-62.24
X104.75Y-64.78
X104.75Y-67.32
X104.75Y-69.86
X104.75Y-72.4
X104.75Y-74.94
X104.75Y-77.48
X104.75Y-80.02
X104.75Y-82.56
X104.75Y-85.1
X104.75Y-87.64
X104.75Y-90.18
X104.75Y-92.72
X104.75Y-95.26
X104.75Y-97.8
X104.75Y-100.34
X104.75Y-102.88
X104.75Y-105.42
X104.75Y-107.96
X107.29Y-62.24
X107.29Y-64.78
X107.29Y-67.32
X107.29Y-69.86
X107.29Y-72.4
X107.29Y-74.94
X107.29Y-77.48
X107.29Y-80.02
X107.29Y-82.56
X107.29Y-85.1
X107.29Y-87.64
X107.29Y-90.18
X107.29Y-92.72
X107.29Y-95.26
X107.29Y-97.8
X107.29Y-100.34
X107.29Y-102.88
X107.29Y-105.42
X107.29Y-107.96
X165.71Y-62.24
X165.71Y-64.78
X165.71Y-67.32
X165.71Y-69.86
X165.71Y-72.4
X165.71Y-74.94
X165.71Y-77.48
X165.71Y-80.02
X165.71Y-82.56
X165.71Y-85.1
X165.71Y-87.64
X165.71Y-90.18
X165.71Y-92.72
X165.71Y-95.26
X165.71Y-97.8
X165.71Y-100.34
X165.71Y-102.88
X165.71Y-105.42
X165.71Y-107.96
X168.25Y-62.24
X168.25Y-64.78
X168.25Y-67.32
X168.25Y-69.86
X168.25Y-72.4
X168.25Y-74.94
X168.25Y-77.48
X168.25Y-80.02
X168.25Y-82.56
X168.25Y-85.1
X168.25Y-87.64
X168.25Y-90.18
X168.25Y-92.72
X168.25Y-95.26
X168.25Y-97.8
X168.25Y-100.34
X168.25Y-102.88
X168.25Y-105.42
X168.25Y-107.96
T5
X120.46Y-71.46
T6
X134.46Y-71.0
X137.0Y-71.0
X151.0Y-73.2
X153.54Y-73.2
T7
X89.2Y-107.8
X98.2Y-107.8
X99.1Y-98.6
X99.4Y-91.6
X146.2Y-74.2
X155.9Y-111.6
T8
X117.92Y-68.92
X117.92Y-74.0
X123.0Y-68.92
X123.0Y-74.0
T9
X77.1Y-62.59
X77.1Y-84.59
X99.1Y-62.59
X99.1Y-84.59
M30
