%TF.GenerationSoftware,KiCad,Pcbnew,10.0.4*%
%TF.CreationDate,2026-07-21T15:01:47+02:00*%
%TF.ProjectId,STM32_sheild,53544d33-325f-4736-9865-696c642e6b69,rev?*%
%TF.SameCoordinates,Original*%
%TF.FileFunction,Paste,Top*%
%TF.FilePolarity,Positive*%
%FSLAX46Y46*%
G04 Gerber Fmt 4.6, Leading zero omitted, Abs format (unit mm)*
G04 Created by KiCad (PCBNEW 10.0.4) date 2026-07-21 15:01:47*
%MOMM*%
%LPD*%
G01*
G04 APERTURE LIST*
G04 Aperture macros list*
%AMRoundRect*
0 Rectangle with rounded corners*
0 $1 Rounding radius*
0 $2 $3 $4 $5 $6 $7 $8 $9 X,Y pos of 4 corners*
0 Add a 4 corners polygon primitive as box body*
4,1,4,$2,$3,$4,$5,$6,$7,$8,$9,$2,$3,0*
0 Add four circle primitives for the rounded corners*
1,1,$1+$1,$2,$3*
1,1,$1+$1,$4,$5*
1,1,$1+$1,$6,$7*
1,1,$1+$1,$8,$9*
0 Add four rect primitives between the rounded corners*
20,1,$1+$1,$2,$3,$4,$5,0*
20,1,$1+$1,$4,$5,$6,$7,0*
20,1,$1+$1,$6,$7,$8,$9,0*
20,1,$1+$1,$8,$9,$2,$3,0*%
G04 Aperture macros list end*
%ADD10C,0.010000*%
%ADD11R,0.300000X0.850000*%
%ADD12RoundRect,0.250000X0.262500X0.450000X-0.262500X0.450000X-0.262500X-0.450000X0.262500X-0.450000X0*%
%ADD13RoundRect,0.250000X0.450000X-0.262500X0.450000X0.262500X-0.450000X0.262500X-0.450000X-0.262500X0*%
%ADD14RoundRect,0.120000X-0.120000X-0.285000X0.120000X-0.285000X0.120000X0.285000X-0.120000X0.285000X0*%
%ADD15RoundRect,0.062500X-0.350000X-0.062500X0.350000X-0.062500X0.350000X0.062500X-0.350000X0.062500X0*%
%ADD16RoundRect,0.140000X0.205000X0.140000X-0.205000X0.140000X-0.205000X-0.140000X0.205000X-0.140000X0*%
%ADD17RoundRect,0.062500X0.337500X0.062500X-0.337500X0.062500X-0.337500X-0.062500X0.337500X-0.062500X0*%
%ADD18RoundRect,0.250000X0.475000X-0.250000X0.475000X0.250000X-0.475000X0.250000X-0.475000X-0.250000X0*%
%ADD19RoundRect,0.250000X-0.450000X0.262500X-0.450000X-0.262500X0.450000X-0.262500X0.450000X0.262500X0*%
%ADD20R,7.467600X6.477000*%
%ADD21RoundRect,0.250000X-0.250000X-0.475000X0.250000X-0.475000X0.250000X0.475000X-0.250000X0.475000X0*%
%ADD22RoundRect,0.062500X-0.117500X-0.062500X0.117500X-0.062500X0.117500X0.062500X-0.117500X0.062500X0*%
%ADD23RoundRect,0.150000X0.512500X0.150000X-0.512500X0.150000X-0.512500X-0.150000X0.512500X-0.150000X0*%
%ADD24RoundRect,0.250000X-0.475000X0.250000X-0.475000X-0.250000X0.475000X-0.250000X0.475000X0.250000X0*%
%ADD25RoundRect,0.243750X0.456250X-0.243750X0.456250X0.243750X-0.456250X0.243750X-0.456250X-0.243750X0*%
%ADD26RoundRect,0.243750X0.243750X0.456250X-0.243750X0.456250X-0.243750X-0.456250X0.243750X-0.456250X0*%
G04 APERTURE END LIST*
D10*
%TO.C,L1*%
X146475000Y-86105000D02*
X146730000Y-85850000D01*
X149270000Y-85850000D01*
X149525000Y-86105000D01*
X149525000Y-86990000D01*
X148825000Y-86990000D01*
X148510000Y-86610000D01*
X147490000Y-86610000D01*
X147175000Y-86990000D01*
X146475000Y-86990000D01*
X146475000Y-86105000D01*
G36*
X149525000Y-86105000D02*
G01*
X149525000Y-86990000D01*
X148825000Y-86990000D01*
X148510000Y-86610000D01*
X147490000Y-86610000D01*
X147175000Y-86990000D01*
X146475000Y-86990000D01*
X146475000Y-86105000D01*
X146730000Y-85850000D01*
X149270000Y-85850000D01*
X149525000Y-86105000D01*
G37*
X149525000Y-88895000D02*
X149270000Y-89150000D01*
X146730000Y-89150000D01*
X146475000Y-88895000D01*
X146475000Y-88010000D01*
X147175000Y-88010000D01*
X147490000Y-88390000D01*
X148510000Y-88390000D01*
X148825000Y-88010000D01*
X149525000Y-88010000D01*
X149525000Y-88895000D01*
G36*
X147490000Y-88390000D02*
G01*
X148510000Y-88390000D01*
X148825000Y-88010000D01*
X149525000Y-88010000D01*
X149525000Y-88895000D01*
X149270000Y-89150000D01*
X146730000Y-89150000D01*
X146475000Y-88895000D01*
X146475000Y-88010000D01*
X147175000Y-88010000D01*
X147490000Y-88390000D01*
G37*
%TD*%
D11*
%TO.C,J4*%
X154400000Y-103000000D03*
X155900000Y-103000000D03*
X156400000Y-103000000D03*
X156900000Y-103000000D03*
X157400000Y-103000000D03*
X157900000Y-103000000D03*
X158400000Y-103000000D03*
X159900000Y-103000000D03*
X154400000Y-104660000D03*
X155900000Y-104660000D03*
X156400000Y-104660000D03*
X156900000Y-104660000D03*
X157400000Y-104660000D03*
X157900000Y-104660000D03*
X158400000Y-104660000D03*
X159900000Y-104660000D03*
%TD*%
D12*
%TO.C,R13*%
X148412500Y-97500000D03*
X146587500Y-97500000D03*
%TD*%
D13*
%TO.C,R1*%
X115420000Y-81832500D03*
X115420000Y-80007500D03*
%TD*%
D14*
%TO.C,U4*%
X151912500Y-86912500D03*
X151912500Y-87912500D03*
X152512500Y-86912500D03*
X152512500Y-87912500D03*
D15*
X151000000Y-86412500D03*
X151000000Y-86912500D03*
X151000000Y-87412500D03*
X151000000Y-87912500D03*
X151000000Y-88412500D03*
X153425000Y-88412500D03*
X153425000Y-87912500D03*
X153425000Y-87412500D03*
X153425000Y-86912500D03*
X153425000Y-86412500D03*
%TD*%
D16*
%TO.C,U5*%
X153000000Y-98000000D03*
X153000000Y-97300000D03*
X152150000Y-98000000D03*
X152150000Y-97300000D03*
D17*
X154025000Y-98400000D03*
X154025000Y-97900000D03*
X154025000Y-97400000D03*
X154025000Y-96900000D03*
X151125000Y-96900000D03*
X151125000Y-97400000D03*
X151125000Y-97900000D03*
X151125000Y-98400000D03*
%TD*%
D18*
%TO.C,C9*%
X112000000Y-94950000D03*
X112000000Y-93050000D03*
%TD*%
D19*
%TO.C,R2*%
X120420000Y-79920000D03*
X120420000Y-81745000D03*
%TD*%
%TO.C,R10*%
X120000000Y-93175000D03*
X120000000Y-95000000D03*
%TD*%
D13*
%TO.C,R14*%
X150200000Y-102912500D03*
X150200000Y-101087500D03*
%TD*%
D20*
%TO.C,B1*%
X87312500Y-126500000D03*
X166687500Y-126500000D03*
%TD*%
D19*
%TO.C,R15*%
X150200000Y-105087500D03*
X150200000Y-106912500D03*
%TD*%
D21*
%TO.C,C10*%
X155550000Y-95000000D03*
X157450000Y-95000000D03*
%TD*%
D22*
%TO.C,D3*%
X140420000Y-82000000D03*
X139580000Y-82000000D03*
%TD*%
D21*
%TO.C,C6*%
X151050000Y-90500000D03*
X152950000Y-90500000D03*
%TD*%
D12*
%TO.C,R11*%
X148912500Y-95000000D03*
X147087500Y-95000000D03*
%TD*%
D23*
%TO.C,U2*%
X120420000Y-87320000D03*
X120420000Y-86370000D03*
X120420000Y-85420000D03*
X118145000Y-85420000D03*
X118145000Y-87320000D03*
%TD*%
D13*
%TO.C,R3*%
X131500000Y-81912500D03*
X131500000Y-80087500D03*
%TD*%
D24*
%TO.C,C7*%
X131000000Y-90550000D03*
X131000000Y-92450000D03*
%TD*%
%TO.C,C8*%
X134500000Y-90550000D03*
X134500000Y-92450000D03*
%TD*%
D25*
%TO.C,D1*%
X160000000Y-79937500D03*
X160000000Y-78062500D03*
%TD*%
D13*
%TO.C,R5*%
X160000000Y-84412500D03*
X160000000Y-82587500D03*
%TD*%
D23*
%TO.C,U3*%
X137000000Y-87450000D03*
X137000000Y-86500000D03*
X137000000Y-85550000D03*
X134725000Y-85550000D03*
X134725000Y-87450000D03*
%TD*%
D21*
%TO.C,C2*%
X151050000Y-84000000D03*
X152950000Y-84000000D03*
%TD*%
D12*
%TO.C,R12*%
X118412500Y-98000000D03*
X116587500Y-98000000D03*
%TD*%
D13*
%TO.C,R6*%
X112000000Y-87412500D03*
X112000000Y-85587500D03*
%TD*%
D24*
%TO.C,C4*%
X114500000Y-89550000D03*
X114500000Y-91450000D03*
%TD*%
D21*
%TO.C,C11*%
X157050000Y-98000000D03*
X158950000Y-98000000D03*
%TD*%
D26*
%TO.C,D4*%
X144937500Y-95000000D03*
X143062500Y-95000000D03*
%TD*%
D19*
%TO.C,R7*%
X115420000Y-84587500D03*
X115420000Y-86412500D03*
%TD*%
D18*
%TO.C,C3*%
X156500000Y-87950000D03*
X156500000Y-86050000D03*
%TD*%
D19*
%TO.C,R9*%
X131600000Y-85187500D03*
X131600000Y-87012500D03*
%TD*%
%TO.C,R4*%
X137000000Y-80087500D03*
X137000000Y-81912500D03*
%TD*%
D24*
%TO.C,C12*%
X112000000Y-98050000D03*
X112000000Y-99950000D03*
%TD*%
D13*
%TO.C,R8*%
X127500000Y-87412500D03*
X127500000Y-85587500D03*
%TD*%
D22*
%TO.C,D2*%
X123020000Y-81800000D03*
X122180000Y-81800000D03*
%TD*%
D21*
%TO.C,C1*%
X151050000Y-81500000D03*
X152950000Y-81500000D03*
%TD*%
D24*
%TO.C,C5*%
X118000000Y-89750000D03*
X118000000Y-91650000D03*
%TD*%
M02*
