%TF.GenerationSoftware,KiCad,Pcbnew,10.0.4*%
%TF.CreationDate,2026-07-21T15:01:47+02:00*%
%TF.ProjectId,STM32_sheild,53544d33-325f-4736-9865-696c642e6b69,rev?*%
%TF.SameCoordinates,Original*%
%TF.FileFunction,Legend,Bot*%
%TF.FilePolarity,Positive*%
%FSLAX46Y46*%
G04 Gerber Fmt 4.6, Leading zero omitted, Abs format (unit mm)*
G04 Created by KiCad (PCBNEW 10.0.4) date 2026-07-21 15:01:47*
%MOMM*%
%LPD*%
G01*
G04 APERTURE LIST*
%ADD10C,0.150000*%
%ADD11C,0.508000*%
%ADD12C,0.120000*%
G04 APERTURE END LIST*
D10*
X167313333Y-58924819D02*
X167313333Y-59639104D01*
X167313333Y-59639104D02*
X167360952Y-59781961D01*
X167360952Y-59781961D02*
X167456190Y-59877200D01*
X167456190Y-59877200D02*
X167599047Y-59924819D01*
X167599047Y-59924819D02*
X167694285Y-59924819D01*
X166360952Y-58924819D02*
X166837142Y-58924819D01*
X166837142Y-58924819D02*
X166884761Y-59401009D01*
X166884761Y-59401009D02*
X166837142Y-59353390D01*
X166837142Y-59353390D02*
X166741904Y-59305771D01*
X166741904Y-59305771D02*
X166503809Y-59305771D01*
X166503809Y-59305771D02*
X166408571Y-59353390D01*
X166408571Y-59353390D02*
X166360952Y-59401009D01*
X166360952Y-59401009D02*
X166313333Y-59496247D01*
X166313333Y-59496247D02*
X166313333Y-59734342D01*
X166313333Y-59734342D02*
X166360952Y-59829580D01*
X166360952Y-59829580D02*
X166408571Y-59877200D01*
X166408571Y-59877200D02*
X166503809Y-59924819D01*
X166503809Y-59924819D02*
X166741904Y-59924819D01*
X166741904Y-59924819D02*
X166837142Y-59877200D01*
X166837142Y-59877200D02*
X166884761Y-59829580D01*
X106353333Y-58924819D02*
X106353333Y-59639104D01*
X106353333Y-59639104D02*
X106400952Y-59781961D01*
X106400952Y-59781961D02*
X106496190Y-59877200D01*
X106496190Y-59877200D02*
X106639047Y-59924819D01*
X106639047Y-59924819D02*
X106734285Y-59924819D01*
X105448571Y-58924819D02*
X105639047Y-58924819D01*
X105639047Y-58924819D02*
X105734285Y-58972438D01*
X105734285Y-58972438D02*
X105781904Y-59020057D01*
X105781904Y-59020057D02*
X105877142Y-59162914D01*
X105877142Y-59162914D02*
X105924761Y-59353390D01*
X105924761Y-59353390D02*
X105924761Y-59734342D01*
X105924761Y-59734342D02*
X105877142Y-59829580D01*
X105877142Y-59829580D02*
X105829523Y-59877200D01*
X105829523Y-59877200D02*
X105734285Y-59924819D01*
X105734285Y-59924819D02*
X105543809Y-59924819D01*
X105543809Y-59924819D02*
X105448571Y-59877200D01*
X105448571Y-59877200D02*
X105400952Y-59829580D01*
X105400952Y-59829580D02*
X105353333Y-59734342D01*
X105353333Y-59734342D02*
X105353333Y-59496247D01*
X105353333Y-59496247D02*
X105400952Y-59401009D01*
X105400952Y-59401009D02*
X105448571Y-59353390D01*
X105448571Y-59353390D02*
X105543809Y-59305771D01*
X105543809Y-59305771D02*
X105734285Y-59305771D01*
X105734285Y-59305771D02*
X105829523Y-59353390D01*
X105829523Y-59353390D02*
X105877142Y-59401009D01*
X105877142Y-59401009D02*
X105924761Y-59496247D01*
%TO.C,B1*%
D11*
X82245200Y-126500000D02*
G75*
G02*
X81483200Y-126500000I-381000J0D01*
G01*
X81483200Y-126500000D02*
G75*
G02*
X82245200Y-126500000I381000J0D01*
G01*
%TO.C,J5*%
D12*
X164380000Y-60910000D02*
X164380000Y-62240000D01*
X164380000Y-63510000D02*
X164380000Y-109290000D01*
X165710000Y-60910000D02*
X164380000Y-60910000D01*
X166980000Y-60910000D02*
X166980000Y-63510000D01*
X166980000Y-63510000D02*
X164380000Y-63510000D01*
X169580000Y-60910000D02*
X166980000Y-60910000D01*
X169580000Y-60910000D02*
X169580000Y-109290000D01*
X169580000Y-109290000D02*
X164380000Y-109290000D01*
%TO.C,J6*%
X103420000Y-60910000D02*
X103420000Y-62240000D01*
X103420000Y-63510000D02*
X103420000Y-109290000D01*
X104750000Y-60910000D02*
X103420000Y-60910000D01*
X106020000Y-60910000D02*
X106020000Y-63510000D01*
X106020000Y-63510000D02*
X103420000Y-63510000D01*
X108620000Y-60910000D02*
X106020000Y-60910000D01*
X108620000Y-60910000D02*
X108620000Y-109290000D01*
X108620000Y-109290000D02*
X103420000Y-109290000D01*
%TD*%
M02*
