%TF.GenerationSoftware,KiCad,Pcbnew,10.0.4*%
%TF.CreationDate,2026-07-21T15:01:47+02:00*%
%TF.ProjectId,STM32_sheild,53544d33-325f-4736-9865-696c642e6b69,rev?*%
%TF.SameCoordinates,Original*%
%TF.FileFunction,Soldermask,Bot*%
%TF.FilePolarity,Negative*%
%FSLAX46Y46*%
G04 Gerber Fmt 4.6, Leading zero omitted, Abs format (unit mm)*
G04 Created by KiCad (PCBNEW 10.0.4) date 2026-07-21 15:01:47*
%MOMM*%
%LPD*%
G01*
G04 APERTURE LIST*
G04 Aperture macros list*
%AMRoundRect*
0 Rectangle with rounded corners*
0 $1 Rounding radius*
0 $2 $3 $4 $5 $6 $7 $8 $9 X,Y pos of 4 corners*
0 Add a 4 corners polygon primitive as box body*
4,1,4,$2,$3,$4,$5,$6,$7,$8,$9,$2,$3,0*
0 Add four circle primitives for the rounded corners*
1,1,$1+$1,$2,$3*
1,1,$1+$1,$4,$5*
1,1,$1+$1,$6,$7*
1,1,$1+$1,$8,$9*
0 Add four rect primitives between the rounded corners*
20,1,$1+$1,$2,$3,$4,$5,0*
20,1,$1+$1,$4,$5,$6,$7,0*
20,1,$1+$1,$6,$7,$8,$9,0*
20,1,$1+$1,$8,$9,$2,$3,0*%
G04 Aperture macros list end*
%ADD10C,2.800000*%
%ADD11C,0.600000*%
%ADD12O,1.000000X0.580000*%
%ADD13C,1.200000*%
%ADD14C,3.200000*%
%ADD15C,2.387600*%
%ADD16R,1.950000X1.950000*%
%ADD17C,1.950000*%
%ADD18R,1.800000X1.800000*%
%ADD19C,2.550000*%
%ADD20RoundRect,0.102000X-0.754000X0.754000X-0.754000X-0.754000X0.754000X-0.754000X0.754000X0.754000X0*%
%ADD21C,1.712000*%
%ADD22C,3.204000*%
%ADD23R,1.700000X1.700000*%
%ADD24O,1.700000X1.700000*%
G04 APERTURE END LIST*
D10*
%TO.C,TP_3.3V_reg1*%
X146200000Y-74200000D03*
%TD*%
D11*
%TO.C,J4*%
X153400000Y-103830000D03*
D12*
X160900000Y-103830000D03*
D13*
X154750000Y-101680000D03*
X159550000Y-101680000D03*
X154750000Y-105980000D03*
X159550000Y-105980000D03*
%TD*%
D14*
%TO.C,H2*%
X160630000Y-59700000D03*
%TD*%
D15*
%TO.C,B1*%
X162852100Y-134501000D03*
%TD*%
D16*
%TO.C,J3*%
X151000000Y-73200000D03*
D17*
X153540000Y-73200000D03*
%TD*%
D10*
%TO.C,TP_V_USB1*%
X155900000Y-111600000D03*
%TD*%
D16*
%TO.C,J1*%
X137000000Y-71000000D03*
D17*
X134460000Y-71000000D03*
%TD*%
D10*
%TO.C,TP_ADC1*%
X99400000Y-91600000D03*
%TD*%
D18*
%TO.C,J2*%
X120460000Y-71460000D03*
D19*
X117920000Y-74000000D03*
X123000000Y-74000000D03*
X123000000Y-68920000D03*
X117920000Y-68920000D03*
%TD*%
D10*
%TO.C,TP_GND1*%
X98200000Y-107800000D03*
%TD*%
%TO.C,TP_VDD1*%
X89200000Y-107800000D03*
%TD*%
D14*
%TO.C,H3*%
X145390000Y-110400000D03*
%TD*%
%TO.C,H1*%
X112370000Y-58430000D03*
%TD*%
D10*
%TO.C,TP_ADC2*%
X99100000Y-98600000D03*
%TD*%
D20*
%TO.C,U1*%
X99600000Y-69780000D03*
D21*
X99600000Y-72320000D03*
X99600000Y-74860000D03*
X99600000Y-77400000D03*
D22*
X99100000Y-62590000D03*
X99100000Y-84590000D03*
X77100000Y-84590000D03*
X77100000Y-62590000D03*
%TD*%
D23*
%TO.C,J5*%
X165710000Y-62240000D03*
D24*
X168250000Y-62240000D03*
X165710000Y-64780000D03*
X168250000Y-64780000D03*
X165710000Y-67320000D03*
X168250000Y-67320000D03*
X165710000Y-69860000D03*
X168250000Y-69860000D03*
X165710000Y-72400000D03*
X168250000Y-72400000D03*
X165710000Y-74940000D03*
X168250000Y-74940000D03*
X165710000Y-77480000D03*
X168250000Y-77480000D03*
X165710000Y-80020000D03*
X168250000Y-80020000D03*
X165710000Y-82560000D03*
X168250000Y-82560000D03*
X165710000Y-85100000D03*
X168250000Y-85100000D03*
X165710000Y-87640000D03*
X168250000Y-87640000D03*
X165710000Y-90180000D03*
X168250000Y-90180000D03*
X165710000Y-92720000D03*
X168250000Y-92720000D03*
X165710000Y-95260000D03*
X168250000Y-95260000D03*
X165710000Y-97800000D03*
X168250000Y-97800000D03*
X165710000Y-100340000D03*
X168250000Y-100340000D03*
X165710000Y-102880000D03*
X168250000Y-102880000D03*
X165710000Y-105420000D03*
X168250000Y-105420000D03*
X165710000Y-107960000D03*
X168250000Y-107960000D03*
%TD*%
D23*
%TO.C,J6*%
X104750000Y-62240000D03*
D24*
X107290000Y-62240000D03*
X104750000Y-64780000D03*
X107290000Y-64780000D03*
X104750000Y-67320000D03*
X107290000Y-67320000D03*
X104750000Y-69860000D03*
X107290000Y-69860000D03*
X104750000Y-72400000D03*
X107290000Y-72400000D03*
X104750000Y-74940000D03*
X107290000Y-74940000D03*
X104750000Y-77480000D03*
X107290000Y-77480000D03*
X104750000Y-80020000D03*
X107290000Y-80020000D03*
X104750000Y-82560000D03*
X107290000Y-82560000D03*
X104750000Y-85100000D03*
X107290000Y-85100000D03*
X104750000Y-87640000D03*
X107290000Y-87640000D03*
X104750000Y-90180000D03*
X107290000Y-90180000D03*
X104750000Y-92720000D03*
X107290000Y-92720000D03*
X104750000Y-95260000D03*
X107290000Y-95260000D03*
X104750000Y-97800000D03*
X107290000Y-97800000D03*
X104750000Y-100340000D03*
X107290000Y-100340000D03*
X104750000Y-102880000D03*
X107290000Y-102880000D03*
X104750000Y-105420000D03*
X107290000Y-105420000D03*
X104750000Y-107960000D03*
X107290000Y-107960000D03*
%TD*%
M02*
