%TF.GenerationSoftware,KiCad,Pcbnew,10.0.4*%
%TF.CreationDate,2026-07-21T15:01:47+02:00*%
%TF.ProjectId,STM32_sheild,53544d33-325f-4736-9865-696c642e6b69,rev?*%
%TF.SameCoordinates,Original*%
%TF.FileFunction,Copper,L1,Top*%
%TF.FilePolarity,Positive*%
%FSLAX46Y46*%
G04 Gerber Fmt 4.6, Leading zero omitted, Abs format (unit mm)*
G04 Created by KiCad (PCBNEW 10.0.4) date 2026-07-21 15:01:47*
%MOMM*%
%LPD*%
G01*
G04 APERTURE LIST*
G04 Aperture macros list*
%AMRoundRect*
0 Rectangle with rounded corners*
0 $1 Rounding radius*
0 $2 $3 $4 $5 $6 $7 $8 $9 X,Y pos of 4 corners*
0 Add a 4 corners polygon primitive as box body*
4,1,4,$2,$3,$4,$5,$6,$7,$8,$9,$2,$3,0*
0 Add four circle primitives for the rounded corners*
1,1,$1+$1,$2,$3*
1,1,$1+$1,$4,$5*
1,1,$1+$1,$6,$7*
1,1,$1+$1,$8,$9*
0 Add four rect primitives between the rounded corners*
20,1,$1+$1,$2,$3,$4,$5,0*
20,1,$1+$1,$4,$5,$6,$7,0*
20,1,$1+$1,$6,$7,$8,$9,0*
20,1,$1+$1,$8,$9,$2,$3,0*%
%AMFreePoly0*
4,1,23,0.763536,1.528536,0.765000,1.525000,0.765000,0.825000,0.763536,0.821464,0.763191,0.821151,0.385000,0.507650,0.385000,-0.507650,0.763191,-0.821151,0.764978,-0.824534,0.765000,-0.825000,0.765000,-1.525000,0.763536,-1.528536,0.760000,-1.530000,-0.125000,-1.530000,-0.128536,-1.528536,-0.383536,-1.273536,-0.385000,-1.270000,-0.385000,1.270000,-0.383536,1.273536,-0.128536,1.528536,
-0.125000,1.530000,0.760000,1.530000,0.763536,1.528536,0.763536,1.528536,$1*%
%AMFreePoly1*
4,1,23,0.128536,1.528536,0.383536,1.273536,0.385000,1.270000,0.385000,-1.270000,0.383536,-1.273536,0.128536,-1.528536,0.125000,-1.530000,-0.760000,-1.530000,-0.763536,-1.528536,-0.765000,-1.525000,-0.765000,-0.825000,-0.763536,-0.821464,-0.763191,-0.821151,-0.385000,-0.507650,-0.385000,0.507650,-0.763191,0.821151,-0.764978,0.824534,-0.765000,0.825000,-0.765000,1.525000,-0.763536,1.528536,
-0.760000,1.530000,0.125000,1.530000,0.128536,1.528536,0.128536,1.528536,$1*%
G04 Aperture macros list end*
%TA.AperFunction,EtchedComponent*%
%ADD10C,0.000000*%
%TD*%
%TA.AperFunction,ComponentPad*%
%ADD11C,2.800000*%
%TD*%
%TA.AperFunction,SMDPad,CuDef*%
%ADD12R,0.300000X0.850000*%
%TD*%
%TA.AperFunction,ComponentPad*%
%ADD13C,1.200000*%
%TD*%
%TA.AperFunction,SMDPad,CuDef*%
%ADD14RoundRect,0.250000X0.262500X0.450000X-0.262500X0.450000X-0.262500X-0.450000X0.262500X-0.450000X0*%
%TD*%
%TA.AperFunction,SMDPad,CuDef*%
%ADD15R,1.500000X1.000000*%
%TD*%
%TA.AperFunction,SMDPad,CuDef*%
%ADD16RoundRect,0.250000X0.450000X-0.262500X0.450000X0.262500X-0.450000X0.262500X-0.450000X-0.262500X0*%
%TD*%
%TA.AperFunction,SMDPad,CuDef*%
%ADD17RoundRect,0.062500X-0.350000X-0.062500X0.350000X-0.062500X0.350000X0.062500X-0.350000X0.062500X0*%
%TD*%
%TA.AperFunction,HeatsinkPad*%
%ADD18R,1.200000X2.000000*%
%TD*%
%TA.AperFunction,SMDPad,CuDef*%
%ADD19RoundRect,0.062500X0.337500X0.062500X-0.337500X0.062500X-0.337500X-0.062500X0.337500X-0.062500X0*%
%TD*%
%TA.AperFunction,HeatsinkPad*%
%ADD20R,1.700000X1.400000*%
%TD*%
%TA.AperFunction,SMDPad,CuDef*%
%ADD21RoundRect,0.250000X0.475000X-0.250000X0.475000X0.250000X-0.475000X0.250000X-0.475000X-0.250000X0*%
%TD*%
%TA.AperFunction,SMDPad,CuDef*%
%ADD22RoundRect,0.250000X-0.450000X0.262500X-0.450000X-0.262500X0.450000X-0.262500X0.450000X0.262500X0*%
%TD*%
%TA.AperFunction,SMDPad,CuDef*%
%ADD23R,7.467600X6.477000*%
%TD*%
%TA.AperFunction,SMDPad,CuDef*%
%ADD24RoundRect,0.250000X-0.250000X-0.475000X0.250000X-0.475000X0.250000X0.475000X-0.250000X0.475000X0*%
%TD*%
%TA.AperFunction,SMDPad,CuDef*%
%ADD25FreePoly0,270.000000*%
%TD*%
%TA.AperFunction,SMDPad,CuDef*%
%ADD26FreePoly1,270.000000*%
%TD*%
%TA.AperFunction,ComponentPad*%
%ADD27R,1.950000X1.950000*%
%TD*%
%TA.AperFunction,ComponentPad*%
%ADD28C,1.950000*%
%TD*%
%TA.AperFunction,SMDPad,CuDef*%
%ADD29RoundRect,0.062500X-0.117500X-0.062500X0.117500X-0.062500X0.117500X0.062500X-0.117500X0.062500X0*%
%TD*%
%TA.AperFunction,SMDPad,CuDef*%
%ADD30RoundRect,0.150000X0.512500X0.150000X-0.512500X0.150000X-0.512500X-0.150000X0.512500X-0.150000X0*%
%TD*%
%TA.AperFunction,SMDPad,CuDef*%
%ADD31RoundRect,0.250000X-0.475000X0.250000X-0.475000X-0.250000X0.475000X-0.250000X0.475000X0.250000X0*%
%TD*%
%TA.AperFunction,SMDPad,CuDef*%
%ADD32RoundRect,0.243750X0.456250X-0.243750X0.456250X0.243750X-0.456250X0.243750X-0.456250X-0.243750X0*%
%TD*%
%TA.AperFunction,ComponentPad*%
%ADD33R,1.800000X1.800000*%
%TD*%
%TA.AperFunction,ComponentPad*%
%ADD34C,2.550000*%
%TD*%
%TA.AperFunction,SMDPad,CuDef*%
%ADD35RoundRect,0.243750X0.243750X0.456250X-0.243750X0.456250X-0.243750X-0.456250X0.243750X-0.456250X0*%
%TD*%
%TA.AperFunction,ComponentPad*%
%ADD36R,1.508000X1.508000*%
%TD*%
%TA.AperFunction,ComponentPad*%
%ADD37C,1.508000*%
%TD*%
%TA.AperFunction,ComponentPad*%
%ADD38C,3.000000*%
%TD*%
%TA.AperFunction,ComponentPad*%
%ADD39R,1.700000X1.700000*%
%TD*%
%TA.AperFunction,ComponentPad*%
%ADD40O,1.700000X1.700000*%
%TD*%
%TA.AperFunction,ViaPad*%
%ADD41C,0.800000*%
%TD*%
%TA.AperFunction,ViaPad*%
%ADD42C,0.500000*%
%TD*%
%TA.AperFunction,Conductor*%
%ADD43C,0.250000*%
%TD*%
%TA.AperFunction,Conductor*%
%ADD44C,0.500000*%
%TD*%
%TA.AperFunction,Conductor*%
%ADD45C,0.300000*%
%TD*%
%TA.AperFunction,Conductor*%
%ADD46C,0.400000*%
%TD*%
%TA.AperFunction,Conductor*%
%ADD47C,0.200000*%
%TD*%
%TA.AperFunction,Conductor*%
%ADD48C,5.000000*%
%TD*%
G04 APERTURE END LIST*
D10*
%TA.AperFunction,EtchedComponent*%
%TO.C,JP1*%
G36*
X112300000Y-68400000D02*
G01*
X111900000Y-68400000D01*
X111900000Y-67900000D01*
X112300000Y-67900000D01*
X112300000Y-68400000D01*
G37*
%TD.AperFunction*%
%TA.AperFunction,EtchedComponent*%
G36*
X113100000Y-68400000D02*
G01*
X112700000Y-68400000D01*
X112700000Y-67900000D01*
X113100000Y-67900000D01*
X113100000Y-68400000D01*
G37*
%TD.AperFunction*%
%TD*%
D11*
%TO.P,TP_3.3V_reg1,1,1_1*%
%TO.N,+3.3V_REG*%
X146200000Y-74200000D03*
%TD*%
D12*
%TO.P,J4,A1,GND_A1*%
%TO.N,GND*%
X154400000Y-103000000D03*
%TO.P,J4,A4,VBUS_A4*%
%TO.N,V_USB*%
X155900000Y-103000000D03*
%TO.P,J4,A5,CC1_A5*%
%TO.N,Net-(J4-CC1)*%
X156400000Y-103000000D03*
%TO.P,J4,A6,D+1_A6*%
%TO.N,unconnected-(J4-D+1-PadA6)*%
X156900000Y-103000000D03*
%TO.P,J4,A7,D-1_A7*%
%TO.N,unconnected-(J4-D-1-PadA7)*%
X157400000Y-103000000D03*
%TO.P,J4,A8,SBU1_A8*%
%TO.N,unconnected-(J4-SBU1-PadA8)*%
X157900000Y-103000000D03*
%TO.P,J4,A9,VBUS1_A9*%
%TO.N,V_USB*%
X158400000Y-103000000D03*
%TO.P,J4,A12,GND1_A12*%
%TO.N,GND*%
X159900000Y-103000000D03*
%TO.P,J4,B1,GND3_B1*%
X154400000Y-104660000D03*
%TO.P,J4,B4,VBUS3_B4*%
%TO.N,V_USB*%
X155900000Y-104660000D03*
%TO.P,J4,B5,CC2_B5*%
%TO.N,Net-(J4-CC2)*%
X156400000Y-104660000D03*
%TO.P,J4,B6,D+2_B6*%
%TO.N,unconnected-(J4-D+2-PadB6)*%
X156900000Y-104660000D03*
%TO.P,J4,B7,D-2_B7*%
%TO.N,unconnected-(J4-D-2-PadB7)*%
X157400000Y-104660000D03*
%TO.P,J4,B8,SBU2_B8*%
%TO.N,unconnected-(J4-SBU2-PadB8)*%
X157900000Y-104660000D03*
%TO.P,J4,B9,VBUS2_B9*%
%TO.N,V_USB*%
X158400000Y-104660000D03*
%TO.P,J4,B12,GND2_B12*%
%TO.N,GND*%
X159900000Y-104660000D03*
D13*
%TO.P,J4,S1,SHIELD_S1*%
X154750000Y-101680000D03*
%TO.P,J4,S2,SHIELD_S2*%
X159550000Y-101680000D03*
%TO.P,J4,S3,SHIELD_S3*%
X154750000Y-105980000D03*
%TO.P,J4,S4,SHIELD_S4*%
X159550000Y-105980000D03*
%TD*%
D14*
%TO.P,R13,1*%
%TO.N,Net-(U5-PROG)*%
X148412500Y-97500000D03*
%TO.P,R13,2*%
%TO.N,GND*%
X146587500Y-97500000D03*
%TD*%
D15*
%TO.P,JP1,1,A_1*%
%TO.N,VDD*%
X112500000Y-68800000D03*
%TO.P,JP1,2,C_2*%
%TO.N,VDD_STM*%
X112500000Y-67500000D03*
%TO.P,JP1,3,B_3*%
%TO.N,+3.3V_REG*%
X112500000Y-66200000D03*
%TD*%
D16*
%TO.P,R1,1*%
%TO.N,/OPA_IN-*%
X115420000Y-81832500D03*
%TO.P,R1,2*%
%TO.N,GND*%
X115420000Y-80007500D03*
%TD*%
D17*
%TO.P,U4,1,VOUT_1*%
%TO.N,+3.3V_REG*%
X151000000Y-86412500D03*
%TO.P,U4,2,L2_2*%
%TO.N,Net-(U4-L2)*%
X151000000Y-86912500D03*
%TO.P,U4,3,PGND_3*%
%TO.N,GND*%
X151000000Y-87412500D03*
%TO.P,U4,4,L1_4*%
%TO.N,Net-(U4-L1)*%
X151000000Y-87912500D03*
%TO.P,U4,5,VIN_5*%
%TO.N,+BATT*%
X151000000Y-88412500D03*
%TO.P,U4,6,EN_6*%
%TO.N,Net-(U4-EN)*%
X153425000Y-88412500D03*
%TO.P,U4,7,PS/SYNC_7*%
X153425000Y-87912500D03*
%TO.P,U4,8,VINA_8*%
X153425000Y-87412500D03*
%TO.P,U4,9,GND_9*%
%TO.N,GND*%
X153425000Y-86912500D03*
%TO.P,U4,10,FB_10*%
%TO.N,+3.3V_REG*%
X153425000Y-86412500D03*
D18*
%TO.P,U4,11,PGND_11*%
%TO.N,GND*%
X152212500Y-87412500D03*
%TD*%
D19*
%TO.P,U5,1,V_{DD}_1*%
%TO.N,V_USB*%
X154025000Y-98400000D03*
%TO.P,U5,2,V_{DD}_2*%
X154025000Y-97900000D03*
%TO.P,U5,3,V_{BAT}_3*%
%TO.N,+BATT*%
X154025000Y-97400000D03*
%TO.P,U5,4,V_{BAT}_4*%
X154025000Y-96900000D03*
%TO.P,U5,5,STAT_5*%
%TO.N,Net-(U5-STAT)*%
X151125000Y-96900000D03*
%TO.P,U5,6,V_{SS}_6*%
%TO.N,GND*%
X151125000Y-97400000D03*
%TO.P,U5,7,NC_7*%
%TO.N,unconnected-(U5-NC-Pad7)*%
X151125000Y-97900000D03*
%TO.P,U5,8,PROG_8*%
%TO.N,Net-(U5-PROG)*%
X151125000Y-98400000D03*
D20*
%TO.P,U5,9*%
%TO.N,N/C*%
X152575000Y-97650000D03*
%TD*%
D21*
%TO.P,C9,1*%
%TO.N,/ADC1*%
X112000000Y-94950000D03*
%TO.P,C9,2*%
%TO.N,GND*%
X112000000Y-93050000D03*
%TD*%
D22*
%TO.P,R2,1*%
%TO.N,/Coax_in*%
X120420000Y-79920000D03*
%TO.P,R2,2*%
%TO.N,/OPA_IN+*%
X120420000Y-81745000D03*
%TD*%
%TO.P,R10,1*%
%TO.N,/OPA_out*%
X120000000Y-93175000D03*
%TO.P,R10,2*%
%TO.N,/ADC1*%
X120000000Y-95000000D03*
%TD*%
D16*
%TO.P,R14,1*%
%TO.N,Net-(J4-CC1)*%
X150200000Y-102912500D03*
%TO.P,R14,2*%
%TO.N,GND*%
X150200000Y-101087500D03*
%TD*%
D23*
%TO.P,B1,1*%
%TO.N,GND*%
X87312500Y-126500000D03*
%TO.P,B1,2*%
%TO.N,+BATT*%
X166687500Y-126500000D03*
%TD*%
D22*
%TO.P,R15,1*%
%TO.N,Net-(J4-CC2)*%
X150200000Y-105087500D03*
%TO.P,R15,2*%
%TO.N,GND*%
X150200000Y-106912500D03*
%TD*%
D24*
%TO.P,C10,1*%
%TO.N,+BATT*%
X155550000Y-95000000D03*
%TO.P,C10,2*%
%TO.N,GND*%
X157450000Y-95000000D03*
%TD*%
D25*
%TO.P,L1,1*%
%TO.N,Net-(U4-L2)*%
X148000000Y-86230000D03*
D26*
%TO.P,L1,2*%
%TO.N,Net-(U4-L1)*%
X148000000Y-88770000D03*
%TD*%
D27*
%TO.P,J3,1,1_1*%
%TO.N,+3.3V_REG*%
X151000000Y-73200000D03*
D28*
%TO.P,J3,2,2_2*%
%TO.N,GND*%
X153540000Y-73200000D03*
%TD*%
D29*
%TO.P,D3,1,A1_1*%
%TO.N,GND*%
X140420000Y-82000000D03*
%TO.P,D3,2,A2_2*%
%TO.N,/OPA2_IN+*%
X139580000Y-82000000D03*
%TD*%
D24*
%TO.P,C6,1*%
%TO.N,+BATT*%
X151050000Y-90500000D03*
%TO.P,C6,2*%
%TO.N,GND*%
X152950000Y-90500000D03*
%TD*%
D14*
%TO.P,R11,1*%
%TO.N,Net-(U5-STAT)*%
X148912500Y-95000000D03*
%TO.P,R11,2*%
%TO.N,Net-(D4-K)*%
X147087500Y-95000000D03*
%TD*%
D11*
%TO.P,TP_V_USB1,1,1_1*%
%TO.N,V_USB*%
X155900000Y-111600000D03*
%TD*%
D27*
%TO.P,J1,1,1_1*%
%TO.N,Net-(J1-Pad1)*%
X137000000Y-71000000D03*
D28*
%TO.P,J1,2,2_2*%
%TO.N,GND*%
X134460000Y-71000000D03*
%TD*%
D11*
%TO.P,TP_ADC1,1,1_1*%
%TO.N,/ADC1*%
X99400000Y-91600000D03*
%TD*%
D30*
%TO.P,U2,1*%
%TO.N,/OPA_out*%
X120420000Y-87320000D03*
%TO.P,U2,2,V-_2*%
%TO.N,GND*%
X120420000Y-86370000D03*
%TO.P,U2,3,+_3*%
%TO.N,/OPA_IN+*%
X120420000Y-85420000D03*
%TO.P,U2,4,-_4*%
%TO.N,/OPA_IN-*%
X118145000Y-85420000D03*
%TO.P,U2,5,V+_5*%
%TO.N,/OPA_VDD*%
X118145000Y-87320000D03*
%TD*%
D16*
%TO.P,R3,1*%
%TO.N,/OPA2_IN-*%
X131500000Y-81912500D03*
%TO.P,R3,2*%
%TO.N,GND*%
X131500000Y-80087500D03*
%TD*%
D31*
%TO.P,C7,1*%
%TO.N,/OPA2_VDD*%
X131000000Y-90550000D03*
%TO.P,C7,2*%
%TO.N,GND*%
X131000000Y-92450000D03*
%TD*%
%TO.P,C8,1*%
%TO.N,/OPA2_VDD*%
X134500000Y-90550000D03*
%TO.P,C8,2*%
%TO.N,GND*%
X134500000Y-92450000D03*
%TD*%
D32*
%TO.P,D1,1,K_1*%
%TO.N,Net-(D1-K)*%
X160000000Y-79937500D03*
%TO.P,D1,2,A_2*%
%TO.N,+3.3V_REG*%
X160000000Y-78062500D03*
%TD*%
D16*
%TO.P,R5,1*%
%TO.N,GND*%
X160000000Y-84412500D03*
%TO.P,R5,2*%
%TO.N,Net-(D1-K)*%
X160000000Y-82587500D03*
%TD*%
D30*
%TO.P,U3,1*%
%TO.N,/OPA2_out*%
X137000000Y-87450000D03*
%TO.P,U3,2,V-_2*%
%TO.N,GND*%
X137000000Y-86500000D03*
%TO.P,U3,3,+_3*%
%TO.N,/OPA2_IN+*%
X137000000Y-85550000D03*
%TO.P,U3,4,-_4*%
%TO.N,/OPA2_IN-*%
X134725000Y-85550000D03*
%TO.P,U3,5,V+_5*%
%TO.N,/OPA2_VDD*%
X134725000Y-87450000D03*
%TD*%
D33*
%TO.P,J2,1,1_1*%
%TO.N,/Coax_in*%
X120460000Y-71460000D03*
D34*
%TO.P,J2,2,2_2*%
%TO.N,GND*%
X117920000Y-74000000D03*
%TO.P,J2,3,3_3*%
X123000000Y-74000000D03*
%TO.P,J2,4,4_4*%
X123000000Y-68920000D03*
%TO.P,J2,5,5_5*%
X117920000Y-68920000D03*
%TD*%
D24*
%TO.P,C2,1*%
%TO.N,+3.3V_REG*%
X151050000Y-84000000D03*
%TO.P,C2,2*%
%TO.N,GND*%
X152950000Y-84000000D03*
%TD*%
D14*
%TO.P,R12,1*%
%TO.N,/OPA2_out*%
X118412500Y-98000000D03*
%TO.P,R12,2*%
%TO.N,/ADC2*%
X116587500Y-98000000D03*
%TD*%
D16*
%TO.P,R6,1*%
%TO.N,/OPA_VDD*%
X112000000Y-87412500D03*
%TO.P,R6,2*%
%TO.N,VDD_STM*%
X112000000Y-85587500D03*
%TD*%
D11*
%TO.P,TP_GND1,1,1_1*%
%TO.N,GND*%
X98200000Y-107800000D03*
%TD*%
%TO.P,TP_VDD1,1,1_1*%
%TO.N,VDD*%
X89200000Y-107800000D03*
%TD*%
D31*
%TO.P,C4,1*%
%TO.N,/OPA_VDD*%
X114500000Y-89550000D03*
%TO.P,C4,2*%
%TO.N,GND*%
X114500000Y-91450000D03*
%TD*%
D24*
%TO.P,C11,1*%
%TO.N,V_USB*%
X157050000Y-98000000D03*
%TO.P,C11,2*%
%TO.N,GND*%
X158950000Y-98000000D03*
%TD*%
D35*
%TO.P,D4,1,K_1*%
%TO.N,Net-(D4-K)*%
X144937500Y-95000000D03*
%TO.P,D4,2,A_2*%
%TO.N,V_USB*%
X143062500Y-95000000D03*
%TD*%
D22*
%TO.P,R7,1*%
%TO.N,/OPA_IN-*%
X115420000Y-84587500D03*
%TO.P,R7,2*%
%TO.N,/OPA_out*%
X115420000Y-86412500D03*
%TD*%
D21*
%TO.P,C3,1*%
%TO.N,Net-(U4-EN)*%
X156500000Y-87950000D03*
%TO.P,C3,2*%
%TO.N,GND*%
X156500000Y-86050000D03*
%TD*%
D22*
%TO.P,R9,1*%
%TO.N,/OPA2_IN-*%
X131600000Y-85187500D03*
%TO.P,R9,2*%
%TO.N,/OPA2_out*%
X131600000Y-87012500D03*
%TD*%
%TO.P,R4,1*%
%TO.N,Net-(J1-Pad1)*%
X137000000Y-80087500D03*
%TO.P,R4,2*%
%TO.N,/OPA2_IN+*%
X137000000Y-81912500D03*
%TD*%
D31*
%TO.P,C12,1*%
%TO.N,/ADC2*%
X112000000Y-98050000D03*
%TO.P,C12,2*%
%TO.N,GND*%
X112000000Y-99950000D03*
%TD*%
D11*
%TO.P,TP_ADC2,1,1_1*%
%TO.N,/ADC2*%
X99100000Y-98600000D03*
%TD*%
D16*
%TO.P,R8,1*%
%TO.N,/OPA2_VDD*%
X127500000Y-87412500D03*
%TO.P,R8,2*%
%TO.N,VDD_STM*%
X127500000Y-85587500D03*
%TD*%
D29*
%TO.P,D2,1,A1_1*%
%TO.N,GND*%
X123020000Y-81800000D03*
%TO.P,D2,2,A2_2*%
%TO.N,/OPA_IN+*%
X122180000Y-81800000D03*
%TD*%
D36*
%TO.P,U1,1,GND_1*%
%TO.N,GND*%
X99600000Y-69780000D03*
D37*
%TO.P,U1,2,VCC_IN_2*%
%TO.N,VDD_STM*%
X99600000Y-72320000D03*
%TO.P,U1,3,SCL_3*%
%TO.N,/SCL*%
X99600000Y-74860000D03*
%TO.P,U1,4,SDA_4*%
%TO.N,/SDA*%
X99600000Y-77400000D03*
D38*
%TO.P,U1,S1*%
%TO.N,N/C*%
X99100000Y-62590000D03*
%TO.P,U1,S2*%
X99100000Y-84590000D03*
%TO.P,U1,S3*%
X77100000Y-84590000D03*
%TO.P,U1,S4*%
X77100000Y-62590000D03*
%TD*%
D24*
%TO.P,C1,1*%
%TO.N,+3.3V_REG*%
X151050000Y-81500000D03*
%TO.P,C1,2*%
%TO.N,GND*%
X152950000Y-81500000D03*
%TD*%
D31*
%TO.P,C5,1*%
%TO.N,/OPA_VDD*%
X118000000Y-89750000D03*
%TO.P,C5,2*%
%TO.N,GND*%
X118000000Y-91650000D03*
%TD*%
D39*
%TO.P,J5,1,Pin_1_1*%
%TO.N,unconnected-(J5-Pin_1-Pad1)*%
X165710000Y-62240000D03*
D40*
%TO.P,J5,2,Pin_2_2*%
%TO.N,unconnected-(J5-Pin_2-Pad2)*%
X168250000Y-62240000D03*
%TO.P,J5,3,Pin_3_3*%
%TO.N,unconnected-(J5-Pin_3-Pad3)*%
X165710000Y-64780000D03*
%TO.P,J5,4,Pin_4_4*%
%TO.N,unconnected-(J5-Pin_4-Pad4)*%
X168250000Y-64780000D03*
%TO.P,J5,5,Pin_5_5*%
%TO.N,unconnected-(J5-Pin_5-Pad5)*%
X165710000Y-67320000D03*
%TO.P,J5,6,Pin_6_6*%
%TO.N,unconnected-(J5-Pin_6-Pad6)*%
X168250000Y-67320000D03*
%TO.P,J5,7,Pin_7_7*%
%TO.N,VDDA*%
X165710000Y-69860000D03*
%TO.P,J5,8,Pin_8_8*%
%TO.N,/5V_USB_CHGR*%
X168250000Y-69860000D03*
%TO.P,J5,9,Pin_9_9*%
%TO.N,GND*%
X165710000Y-72400000D03*
%TO.P,J5,10,Pin_10_10*%
%TO.N,unconnected-(J5-Pin_10-Pad10)*%
X168250000Y-72400000D03*
%TO.P,J5,11,Pin_11_11*%
%TO.N,unconnected-(J5-Pin_11-Pad11)*%
X165710000Y-74940000D03*
%TO.P,J5,12,Pin_12_12*%
%TO.N,unconnected-(J5-Pin_12-Pad12)*%
X168250000Y-74940000D03*
%TO.P,J5,13,Pin_13_13*%
%TO.N,unconnected-(J5-Pin_13-Pad13)*%
X165710000Y-77480000D03*
%TO.P,J5,14,Pin_14_14*%
%TO.N,unconnected-(J5-Pin_14-Pad14)*%
X168250000Y-77480000D03*
%TO.P,J5,15,Pin_15_15*%
%TO.N,unconnected-(J5-Pin_15-Pad15)*%
X165710000Y-80020000D03*
%TO.P,J5,16,Pin_16_16*%
%TO.N,unconnected-(J5-Pin_16-Pad16)*%
X168250000Y-80020000D03*
%TO.P,J5,17,Pin_17_17*%
%TO.N,/SCL*%
X165710000Y-82560000D03*
%TO.P,J5,18,Pin_18_18*%
%TO.N,unconnected-(J5-Pin_18-Pad18)*%
X168250000Y-82560000D03*
%TO.P,J5,19,Pin_19_19*%
%TO.N,unconnected-(J5-Pin_19-Pad19)*%
X165710000Y-85100000D03*
%TO.P,J5,20,Pin_20_20*%
%TO.N,GND*%
X168250000Y-85100000D03*
%TO.P,J5,21,Pin_21_21*%
%TO.N,unconnected-(J5-Pin_21-Pad21)*%
X165710000Y-87640000D03*
%TO.P,J5,22,Pin_22_22*%
%TO.N,unconnected-(J5-Pin_22-Pad22)*%
X168250000Y-87640000D03*
%TO.P,J5,23,Pin_23_23*%
%TO.N,unconnected-(J5-Pin_23-Pad23)*%
X165710000Y-90180000D03*
%TO.P,J5,24,Pin_24_24*%
%TO.N,unconnected-(J5-Pin_24-Pad24)*%
X168250000Y-90180000D03*
%TO.P,J5,25,Pin_25_25*%
%TO.N,unconnected-(J5-Pin_25-Pad25)*%
X165710000Y-92720000D03*
%TO.P,J5,26,Pin_26_26*%
%TO.N,unconnected-(J5-Pin_26-Pad26)*%
X168250000Y-92720000D03*
%TO.P,J5,27,Pin_27_27*%
%TO.N,unconnected-(J5-Pin_27-Pad27)*%
X165710000Y-95260000D03*
%TO.P,J5,28,Pin_28_28*%
%TO.N,unconnected-(J5-Pin_28-Pad28)*%
X168250000Y-95260000D03*
%TO.P,J5,29,Pin_29_29*%
%TO.N,unconnected-(J5-Pin_29-Pad29)*%
X165710000Y-97800000D03*
%TO.P,J5,30,Pin_30_30*%
%TO.N,unconnected-(J5-Pin_30-Pad30)*%
X168250000Y-97800000D03*
%TO.P,J5,31,Pin_31_31*%
%TO.N,unconnected-(J5-Pin_31-Pad31)*%
X165710000Y-100340000D03*
%TO.P,J5,32,Pin_32_32*%
%TO.N,GND*%
X168250000Y-100340000D03*
%TO.P,J5,33,Pin_33_33*%
%TO.N,unconnected-(J5-Pin_33-Pad33)*%
X165710000Y-102880000D03*
%TO.P,J5,34,Pin_34_34*%
%TO.N,unconnected-(J5-Pin_34-Pad34)*%
X168250000Y-102880000D03*
%TO.P,J5,35,Pin_35_35*%
%TO.N,unconnected-(J5-Pin_35-Pad35)*%
X165710000Y-105420000D03*
%TO.P,J5,36,Pin_36_36*%
%TO.N,unconnected-(J5-Pin_36-Pad36)*%
X168250000Y-105420000D03*
%TO.P,J5,37,Pin_37_37*%
%TO.N,unconnected-(J5-Pin_37-Pad37)*%
X165710000Y-107960000D03*
%TO.P,J5,38,Pin_38_38*%
%TO.N,unconnected-(J5-Pin_38-Pad38)*%
X168250000Y-107960000D03*
%TD*%
D39*
%TO.P,J6,1,Pin_1_1*%
%TO.N,unconnected-(J6-Pin_1-Pad1)*%
X104750000Y-62240000D03*
D40*
%TO.P,J6,2,Pin_2_2*%
%TO.N,unconnected-(J6-Pin_2-Pad2)*%
X107290000Y-62240000D03*
%TO.P,J6,3,Pin_3_3*%
%TO.N,unconnected-(J6-Pin_3-Pad3)*%
X104750000Y-64780000D03*
%TO.P,J6,4,Pin_4_4*%
%TO.N,unconnected-(J6-Pin_4-Pad4)*%
X107290000Y-64780000D03*
%TO.P,J6,5,Pin_5_5*%
%TO.N,VDD*%
X104750000Y-67320000D03*
%TO.P,J6,6,Pin_6_6*%
%TO.N,/E5V*%
X107290000Y-67320000D03*
%TO.P,J6,7,Pin_7_7*%
%TO.N,unconnected-(J6-Pin_7-Pad7)*%
X104750000Y-69860000D03*
%TO.P,J6,8,Pin_8_8*%
%TO.N,GND*%
X107290000Y-69860000D03*
%TO.P,J6,9,Pin_9_9*%
%TO.N,unconnected-(J6-Pin_9-Pad9)*%
X104750000Y-72400000D03*
%TO.P,J6,10,Pin_10_10*%
%TO.N,unconnected-(J6-Pin_10-Pad10)*%
X107290000Y-72400000D03*
%TO.P,J6,11,Pin_11_11*%
%TO.N,unconnected-(J6-Pin_11-Pad11)*%
X104750000Y-74940000D03*
%TO.P,J6,12,Pin_12_12*%
%TO.N,/IOREF*%
X107290000Y-74940000D03*
%TO.P,J6,13,Pin_13_13*%
%TO.N,unconnected-(J6-Pin_13-Pad13)*%
X104750000Y-77480000D03*
%TO.P,J6,14,Pin_14_14*%
%TO.N,/~{RST}*%
X107290000Y-77480000D03*
%TO.P,J6,15,Pin_15_15*%
%TO.N,unconnected-(J6-Pin_15-Pad15)*%
X104750000Y-80020000D03*
%TO.P,J6,16,Pin_16_16*%
%TO.N,+3V3*%
X107290000Y-80020000D03*
%TO.P,J6,17,Pin_17_17*%
%TO.N,unconnected-(J6-Pin_17-Pad17)*%
X104750000Y-82560000D03*
%TO.P,J6,18,Pin_18_18*%
%TO.N,+5V*%
X107290000Y-82560000D03*
%TO.P,J6,19,Pin_19_19*%
%TO.N,GND*%
X104750000Y-85100000D03*
%TO.P,J6,20,Pin_20_20*%
X107290000Y-85100000D03*
%TO.P,J6,21,Pin_21_21*%
%TO.N,/SDA*%
X104750000Y-87640000D03*
%TO.P,J6,22,Pin_22_22*%
%TO.N,GND*%
X107290000Y-87640000D03*
%TO.P,J6,23,Pin_23_23*%
%TO.N,unconnected-(J6-Pin_23-Pad23)*%
X104750000Y-90180000D03*
%TO.P,J6,24,Pin_24_24*%
%TO.N,/VIN*%
X107290000Y-90180000D03*
%TO.P,J6,25,Pin_25_25*%
%TO.N,unconnected-(J6-Pin_25-Pad25)*%
X104750000Y-92720000D03*
%TO.P,J6,26,Pin_26_26*%
%TO.N,unconnected-(J6-Pin_26-Pad26)*%
X107290000Y-92720000D03*
%TO.P,J6,27,Pin_27_27*%
%TO.N,unconnected-(J6-Pin_27-Pad27)*%
X104750000Y-95260000D03*
%TO.P,J6,28,Pin_28_28*%
%TO.N,/ADC1*%
X107290000Y-95260000D03*
%TO.P,J6,29,Pin_29_29*%
%TO.N,unconnected-(J6-Pin_29-Pad29)*%
X104750000Y-97800000D03*
%TO.P,J6,30,Pin_30_30*%
%TO.N,/ADC2*%
X107290000Y-97800000D03*
%TO.P,J6,31,Pin_31_31*%
%TO.N,unconnected-(J6-Pin_31-Pad31)*%
X104750000Y-100340000D03*
%TO.P,J6,32,Pin_32_32*%
%TO.N,unconnected-(J6-Pin_32-Pad32)*%
X107290000Y-100340000D03*
%TO.P,J6,33,Pin_33_33*%
%TO.N,unconnected-(J6-Pin_33-Pad33)*%
X104750000Y-102880000D03*
%TO.P,J6,34,Pin_34_34*%
%TO.N,unconnected-(J6-Pin_34-Pad34)*%
X107290000Y-102880000D03*
%TO.P,J6,35,Pin_35_35*%
%TO.N,unconnected-(J6-Pin_35-Pad35)*%
X104750000Y-105420000D03*
%TO.P,J6,36,Pin_36_36*%
%TO.N,unconnected-(J6-Pin_36-Pad36)*%
X107290000Y-105420000D03*
%TO.P,J6,37,Pin_37_37*%
%TO.N,unconnected-(J6-Pin_37-Pad37)*%
X104750000Y-107960000D03*
%TO.P,J6,38,Pin_38_38*%
%TO.N,unconnected-(J6-Pin_38-Pad38)*%
X107290000Y-107960000D03*
%TD*%
D41*
%TO.N,GND*%
X149800000Y-97400000D03*
X154500000Y-81500000D03*
D42*
X92420000Y-131580000D03*
D41*
X159000000Y-95000000D03*
D42*
X92420000Y-121420000D03*
D41*
X129500000Y-92450000D03*
X160500000Y-98000000D03*
X131500000Y-78500000D03*
D42*
X94960000Y-129040000D03*
X92420000Y-126500000D03*
X92420000Y-123960000D03*
D41*
X112000000Y-91500000D03*
X151600000Y-101200000D03*
X151800000Y-107000000D03*
D42*
X94960000Y-131580000D03*
D41*
X112000000Y-101500000D03*
D42*
X94960000Y-126500000D03*
D41*
X156500000Y-84500000D03*
X124600000Y-81800000D03*
X160000000Y-86000000D03*
D42*
X94960000Y-121420000D03*
D41*
X141500000Y-82000000D03*
X154800000Y-86900000D03*
X114500000Y-93000000D03*
X122100000Y-86400000D03*
X138500000Y-86500000D03*
X154500000Y-90500000D03*
D42*
X94960000Y-123960000D03*
D41*
X154500000Y-84000000D03*
X115500000Y-78500000D03*
X145000000Y-96500000D03*
X133000000Y-92500000D03*
X118100000Y-92900000D03*
D42*
X92420000Y-129040000D03*
%TD*%
%TO.N,+3.3V_REG*%
D43*
X149840000Y-73600000D02*
X151000000Y-72440000D01*
X146800000Y-73600000D02*
X149840000Y-73600000D01*
X151000000Y-72440000D02*
X151000000Y-73200000D01*
X146200000Y-74200000D02*
X146800000Y-73600000D01*
D44*
X151050000Y-73250000D02*
X151000000Y-73200000D01*
X151050000Y-81500000D02*
X151050000Y-73250000D01*
X146160000Y-66200000D02*
X112500000Y-66200000D01*
X151000000Y-71040000D02*
X146160000Y-66200000D01*
X151000000Y-73200000D02*
X151000000Y-71040000D01*
%TO.N,+BATT*%
D43*
X154025000Y-97400000D02*
X154025000Y-96900000D01*
X155000000Y-97400000D02*
X155200000Y-97200000D01*
X154025000Y-97400000D02*
X155000000Y-97400000D01*
%TO.N,VDD*%
X102577000Y-69493000D02*
X104750000Y-67320000D01*
X100061000Y-75939000D02*
X102577000Y-73423000D01*
X102577000Y-73423000D02*
X102577000Y-69493000D01*
X95861000Y-75939000D02*
X100061000Y-75939000D01*
X89400000Y-82400000D02*
X95861000Y-75939000D01*
X89400000Y-108400000D02*
X89400000Y-82400000D01*
%TO.N,VDD_STM*%
X111500000Y-67500000D02*
X112500000Y-67500000D01*
X102200000Y-67200000D02*
X103255000Y-66145000D01*
X110145000Y-66145000D02*
X111500000Y-67500000D01*
X102200000Y-69720000D02*
X102200000Y-67200000D01*
X103255000Y-66145000D02*
X110145000Y-66145000D01*
X99600000Y-72320000D02*
X102200000Y-69720000D01*
%TO.N,/SCL*%
X103722000Y-63500000D02*
X148501701Y-63500000D01*
X98521000Y-68701000D02*
X103722000Y-63500000D01*
X99600000Y-74860000D02*
X98521000Y-73781000D01*
X98521000Y-73781000D02*
X98521000Y-68701000D01*
%TO.N,/SDA*%
X102000000Y-79800000D02*
X102000000Y-84890000D01*
X102000000Y-84890000D02*
X104750000Y-87640000D01*
X99600000Y-77400000D02*
X102000000Y-79800000D01*
%TO.N,VDD*%
D45*
X105950000Y-68520000D02*
X104750000Y-67320000D01*
X108920000Y-68520000D02*
X105950000Y-68520000D01*
X109200000Y-68800000D02*
X108920000Y-68520000D01*
%TO.N,GND*%
D43*
X152600000Y-90150000D02*
X152950000Y-90500000D01*
X152600000Y-87800000D02*
X152600000Y-90150000D01*
X152212500Y-87412500D02*
X152600000Y-87800000D01*
X152212500Y-87412500D02*
X151000000Y-87412500D01*
X152712500Y-86912500D02*
X153425000Y-86912500D01*
X152212500Y-87412500D02*
X152712500Y-86912500D01*
X149800000Y-97400000D02*
X151125000Y-97400000D01*
D45*
X146000000Y-97500000D02*
X146587500Y-97500000D01*
X145000000Y-96500000D02*
X146000000Y-97500000D01*
%TO.N,Net-(U5-PROG)*%
D43*
X149312500Y-98400000D02*
X151125000Y-98400000D01*
X148412500Y-97500000D02*
X149312500Y-98400000D01*
%TO.N,V_USB*%
X143062500Y-97062500D02*
X145500000Y-99500000D01*
X145500000Y-99500000D02*
X154500000Y-99500000D01*
X143062500Y-95000000D02*
X143062500Y-97062500D01*
%TO.N,Net-(U5-STAT)*%
X150000000Y-95000000D02*
X151125000Y-96125000D01*
X148912500Y-95000000D02*
X150000000Y-95000000D01*
X151125000Y-96125000D02*
X151125000Y-96900000D01*
%TO.N,GND*%
X154800000Y-86900000D02*
X154100000Y-86900000D01*
D46*
X118000000Y-92400000D02*
X118000000Y-91650000D01*
D44*
X157450000Y-95000000D02*
X159000000Y-95000000D01*
X137000000Y-86500000D02*
X138500000Y-86500000D01*
D43*
X151487500Y-101087500D02*
X151600000Y-101200000D01*
X159900000Y-103000000D02*
X159900000Y-102030000D01*
X159900000Y-105630000D02*
X159550000Y-105980000D01*
X151712500Y-106912500D02*
X151800000Y-107000000D01*
D46*
X118100000Y-92900000D02*
X118100000Y-92500000D01*
D47*
X123020000Y-81800000D02*
X124600000Y-81800000D01*
D44*
X152950000Y-81500000D02*
X154500000Y-81500000D01*
D43*
X150200000Y-101087500D02*
X151487500Y-101087500D01*
D46*
X118100000Y-92500000D02*
X118000000Y-92400000D01*
D43*
X154400000Y-105630000D02*
X154750000Y-105980000D01*
X154400000Y-103000000D02*
X154400000Y-102030000D01*
X150200000Y-106912500D02*
X151712500Y-106912500D01*
D44*
X134500000Y-92450000D02*
X133050000Y-92450000D01*
D43*
X140420000Y-82000000D02*
X141500000Y-82000000D01*
D44*
X131500000Y-80087500D02*
X131500000Y-78500000D01*
D43*
X159900000Y-102030000D02*
X159550000Y-101680000D01*
X154087500Y-86912500D02*
X153425000Y-86912500D01*
D44*
X112000000Y-91500000D02*
X112000000Y-93050000D01*
X160000000Y-86000000D02*
X160000000Y-84412500D01*
X133050000Y-92450000D02*
X133000000Y-92500000D01*
D43*
X154400000Y-102030000D02*
X154750000Y-101680000D01*
D44*
X158950000Y-98000000D02*
X160500000Y-98000000D01*
X152950000Y-84000000D02*
X154500000Y-84000000D01*
D43*
X154400000Y-104660000D02*
X154400000Y-105630000D01*
D44*
X112000000Y-101500000D02*
X112000000Y-99950000D01*
D43*
X159900000Y-104660000D02*
X159900000Y-105630000D01*
D44*
X156500000Y-86050000D02*
X156500000Y-84500000D01*
X115420000Y-80007500D02*
X115420000Y-78580000D01*
X129500000Y-92450000D02*
X131000000Y-92450000D01*
X152950000Y-90500000D02*
X154500000Y-90500000D01*
D43*
X154100000Y-86900000D02*
X154087500Y-86912500D01*
D46*
X120420000Y-86370000D02*
X122070000Y-86370000D01*
D44*
X115420000Y-78580000D02*
X115500000Y-78500000D01*
X114500000Y-93000000D02*
X114500000Y-91450000D01*
D46*
X122070000Y-86370000D02*
X122100000Y-86400000D01*
%TO.N,VDD*%
D44*
X112500000Y-68800000D02*
X109200000Y-68800000D01*
%TO.N,VDD_STM*%
D43*
X114100000Y-70700000D02*
X114100000Y-68000000D01*
X112000000Y-72800000D02*
X114100000Y-70700000D01*
X127500000Y-68500000D02*
X126320000Y-67320000D01*
X127500000Y-85587500D02*
X127500000Y-68500000D01*
X114100000Y-68000000D02*
X113600000Y-67500000D01*
X126320000Y-67320000D02*
X112680000Y-67320000D01*
X112000000Y-85587500D02*
X112000000Y-72800000D01*
X113600000Y-67500000D02*
X112500000Y-67500000D01*
X112680000Y-67320000D02*
X112500000Y-67500000D01*
%TO.N,+3.3V_REG*%
X160000000Y-78062500D02*
X154487500Y-78062500D01*
D44*
X151050000Y-84000000D02*
X151050000Y-81500000D01*
D43*
X154487500Y-78062500D02*
X151050000Y-81500000D01*
X151000000Y-86412500D02*
X151252000Y-86160500D01*
X151000000Y-85660500D02*
X151000000Y-85500000D01*
X151252000Y-86160500D02*
X151500000Y-86160500D01*
X151500000Y-86160500D02*
X153173000Y-86160500D01*
D44*
X151000000Y-85500000D02*
X151000000Y-84050000D01*
D43*
X153173000Y-86160500D02*
X153425000Y-86412500D01*
X151500000Y-86160500D02*
X151000000Y-85660500D01*
D44*
X151000000Y-84050000D02*
X151050000Y-84000000D01*
%TO.N,/OPA_IN-*%
D47*
X115420000Y-84587500D02*
X115432500Y-84600000D01*
X115432500Y-84600000D02*
X116800000Y-84600000D01*
X118057500Y-85507500D02*
X118145000Y-85420000D01*
X116800000Y-84600000D02*
X117707500Y-85507500D01*
X115420000Y-84587500D02*
X115420000Y-81832500D01*
X117707500Y-85507500D02*
X118057500Y-85507500D01*
%TO.N,Net-(U4-L2)*%
D44*
X148000000Y-86230000D02*
X148770000Y-87000000D01*
X148770000Y-87000000D02*
X150000000Y-87000000D01*
D43*
X150087500Y-86912500D02*
X151000000Y-86912500D01*
X150000000Y-87000000D02*
X150087500Y-86912500D01*
%TO.N,Net-(U4-L1)*%
D44*
X148770000Y-88000000D02*
X150000000Y-88000000D01*
D43*
X150110666Y-87912500D02*
X151000000Y-87912500D01*
D44*
X148000000Y-88770000D02*
X148770000Y-88000000D01*
D43*
X150000000Y-88000000D02*
X150023166Y-88000000D01*
X150023166Y-88000000D02*
X150110666Y-87912500D01*
%TO.N,+BATT*%
D48*
X139500000Y-93795892D02*
X141795892Y-91500000D01*
X166687500Y-126500000D02*
X150000000Y-126500000D01*
X150000000Y-126500000D02*
X139500000Y-116000000D01*
X139500000Y-116000000D02*
X139500000Y-93795892D01*
D43*
X151050000Y-88462500D02*
X151000000Y-88412500D01*
X151050000Y-90500000D02*
X151050000Y-88462500D01*
%TO.N,Net-(U4-EN)*%
X153462500Y-87950000D02*
X153425000Y-87912500D01*
X156500000Y-87950000D02*
X153462500Y-87950000D01*
X153425000Y-87912500D02*
X153425000Y-87412500D01*
X153425000Y-87912500D02*
X153425000Y-88412500D01*
%TO.N,V_USB*%
X155900000Y-101900000D02*
X156000000Y-101800000D01*
X155900000Y-103000000D02*
X155900000Y-101900000D01*
X155900000Y-111600000D02*
X155900000Y-104660000D01*
X158400000Y-103000000D02*
X158400000Y-102200000D01*
X158400000Y-105800000D02*
X158200000Y-106000000D01*
X155900000Y-104660000D02*
X155900000Y-105500000D01*
X158400000Y-102200000D02*
X158000000Y-101800000D01*
X154025000Y-97900000D02*
X155400000Y-97900000D01*
X155900000Y-105500000D02*
X156200000Y-105800000D01*
X158400000Y-104660000D02*
X158400000Y-105800000D01*
X155400000Y-97900000D02*
X155500000Y-98000000D01*
%TO.N,/ADC1*%
X107600000Y-94950000D02*
X107290000Y-95260000D01*
X112000000Y-94950000D02*
X107600000Y-94950000D01*
X106115000Y-94085000D02*
X107290000Y-95260000D01*
X101885000Y-94085000D02*
X106115000Y-94085000D01*
X113000000Y-95000000D02*
X120000000Y-95000000D01*
X99400000Y-91600000D02*
X101885000Y-94085000D01*
X112950000Y-94950000D02*
X113000000Y-95000000D01*
X112000000Y-94950000D02*
X112950000Y-94950000D01*
%TO.N,/Coax_in*%
X120460000Y-79880000D02*
X120420000Y-79920000D01*
X120460000Y-71460000D02*
X120460000Y-79880000D01*
%TO.N,/OPA_IN+*%
D47*
X122180000Y-81800000D02*
X120475000Y-81800000D01*
X120475000Y-81800000D02*
X120420000Y-81745000D01*
X120420000Y-81745000D02*
X120420000Y-85420000D01*
%TO.N,/OPA_out*%
D43*
X116325000Y-86412500D02*
X116332500Y-86420000D01*
X116332500Y-86420000D02*
X118920000Y-86420000D01*
X118920000Y-86420000D02*
X119820000Y-87320000D01*
X115420000Y-86412500D02*
X115507500Y-86500000D01*
X120000000Y-87740000D02*
X120420000Y-87320000D01*
X120000000Y-93175000D02*
X120000000Y-87740000D01*
X119820000Y-87320000D02*
X120420000Y-87320000D01*
X115420000Y-86412500D02*
X116325000Y-86412500D01*
%TO.N,Net-(J4-CC1)*%
D47*
X153407396Y-102912500D02*
X154146896Y-103652000D01*
X154146896Y-103652000D02*
X156373000Y-103652000D01*
X156373000Y-103652000D02*
X156400000Y-103625000D01*
X156400000Y-103625000D02*
X156400000Y-103000000D01*
X150200000Y-102912500D02*
X153407396Y-102912500D01*
%TO.N,Net-(J4-CC2)*%
X156400000Y-104035000D02*
X156400000Y-104660000D01*
X153067396Y-105087500D02*
X154146896Y-104008000D01*
X154146896Y-104008000D02*
X156373000Y-104008000D01*
X150200000Y-105087500D02*
X153067396Y-105087500D01*
X156373000Y-104008000D02*
X156400000Y-104035000D01*
%TO.N,/OPA2_IN+*%
X137000000Y-85550000D02*
X137000000Y-81912500D01*
X139492500Y-81912500D02*
X139580000Y-82000000D01*
X137000000Y-81912500D02*
X139492500Y-81912500D01*
%TO.N,Net-(D4-K)*%
D43*
X144937500Y-95000000D02*
X147087500Y-95000000D01*
%TO.N,Net-(J1-Pad1)*%
X137000000Y-80087500D02*
X137000000Y-71000000D01*
%TO.N,/OPA_VDD*%
X114500000Y-89550000D02*
X114137500Y-89550000D01*
X118100000Y-87365000D02*
X118145000Y-87320000D01*
X118000000Y-89750000D02*
X118100000Y-89650000D01*
X114137500Y-89550000D02*
X112000000Y-87412500D01*
X117800000Y-89550000D02*
X118000000Y-89750000D01*
X114500000Y-89550000D02*
X117800000Y-89550000D01*
X118100000Y-89650000D02*
X118100000Y-87365000D01*
%TO.N,/OPA2_IN-*%
D47*
X131500000Y-85087500D02*
X131600000Y-85187500D01*
X131500000Y-81912500D02*
X131500000Y-85087500D01*
X131600000Y-85187500D02*
X131600000Y-85200000D01*
X131600000Y-85200000D02*
X131950000Y-85550000D01*
X131950000Y-85550000D02*
X134725000Y-85550000D01*
%TO.N,/OPA2_VDD*%
D43*
X134725000Y-87450000D02*
X134725000Y-90325000D01*
X131000000Y-90550000D02*
X134500000Y-90550000D01*
X127500000Y-89500000D02*
X127500000Y-87412500D01*
X128550000Y-90550000D02*
X127500000Y-89500000D01*
X134725000Y-90325000D02*
X134500000Y-90550000D01*
X131000000Y-90550000D02*
X128550000Y-90550000D01*
%TO.N,Net-(D1-K)*%
X160000000Y-82587500D02*
X160000000Y-79937500D01*
%TO.N,/OPA2_out*%
X136000000Y-93500000D02*
X136000000Y-89000000D01*
X135500000Y-94000000D02*
X136000000Y-93500000D01*
X124000000Y-98000000D02*
X128000000Y-94000000D01*
X128000000Y-94000000D02*
X135500000Y-94000000D01*
X118412500Y-98000000D02*
X124000000Y-98000000D01*
X135898000Y-86898000D02*
X136450000Y-87450000D01*
X137000000Y-88000000D02*
X137000000Y-87450000D01*
X136000000Y-89000000D02*
X137000000Y-88000000D01*
X136450000Y-87450000D02*
X137000000Y-87450000D01*
X131600000Y-87012500D02*
X131900000Y-87012500D01*
X132014500Y-86898000D02*
X135898000Y-86898000D01*
X131900000Y-87012500D02*
X132014500Y-86898000D01*
%TO.N,/ADC2*%
X116537500Y-98050000D02*
X116587500Y-98000000D01*
X105925000Y-99165000D02*
X107290000Y-97800000D01*
X99100000Y-98600000D02*
X99665000Y-99165000D01*
X111750000Y-97800000D02*
X112000000Y-98050000D01*
X112000000Y-98050000D02*
X116537500Y-98050000D01*
X99665000Y-99165000D02*
X105925000Y-99165000D01*
X107290000Y-97800000D02*
X111750000Y-97800000D01*
%TO.N,/SCL*%
X148501701Y-63500000D02*
X163000000Y-77998299D01*
X163000000Y-77998299D02*
X163000000Y-79850000D01*
X163000000Y-79850000D02*
X165710000Y-82560000D01*
%TO.N,/SDA*%
X104750000Y-87094060D02*
X104750000Y-87640000D01*
%TD*%
%TA.AperFunction,Conductor*%
%TO.N,GND*%
G36*
X96443039Y-120519685D02*
G01*
X96488794Y-120572489D01*
X96500000Y-120624000D01*
X96500000Y-132376000D01*
X96480315Y-132443039D01*
X96427511Y-132488794D01*
X96376000Y-132500000D01*
X83624000Y-132500000D01*
X83556961Y-132480315D01*
X83511206Y-132427511D01*
X83500000Y-132376000D01*
X83500000Y-130362500D01*
X83519685Y-130295461D01*
X83572489Y-130249706D01*
X83624000Y-130238500D01*
X87062500Y-130238500D01*
X87562500Y-130238500D01*
X91094128Y-130238500D01*
X91094144Y-130238499D01*
X91153672Y-130232098D01*
X91153679Y-130232096D01*
X91288386Y-130181854D01*
X91288393Y-130181850D01*
X91403487Y-130095690D01*
X91403490Y-130095687D01*
X91489650Y-129980593D01*
X91489654Y-129980586D01*
X91539896Y-129845879D01*
X91539898Y-129845872D01*
X91546299Y-129786344D01*
X91546300Y-129786327D01*
X91546300Y-126750000D01*
X87562500Y-126750000D01*
X87562500Y-130238500D01*
X87062500Y-130238500D01*
X87062500Y-126250000D01*
X87562500Y-126250000D01*
X91546300Y-126250000D01*
X91546300Y-123213672D01*
X91546299Y-123213655D01*
X91539898Y-123154127D01*
X91539896Y-123154120D01*
X91489654Y-123019413D01*
X91489650Y-123019406D01*
X91403490Y-122904312D01*
X91403487Y-122904309D01*
X91288393Y-122818149D01*
X91288386Y-122818145D01*
X91153679Y-122767903D01*
X91153672Y-122767901D01*
X91094144Y-122761500D01*
X87562500Y-122761500D01*
X87562500Y-126250000D01*
X87062500Y-126250000D01*
X87062500Y-122761500D01*
X83624000Y-122761500D01*
X83556961Y-122741815D01*
X83511206Y-122689011D01*
X83500000Y-122637500D01*
X83500000Y-120624000D01*
X83519685Y-120556961D01*
X83572489Y-120511206D01*
X83624000Y-120500000D01*
X96376000Y-120500000D01*
X96443039Y-120519685D01*
G37*
%TD.AperFunction*%
%TD*%
%TA.AperFunction,Conductor*%
%TO.N,V_USB*%
G36*
X161893106Y-97505023D02*
G01*
X161908104Y-97509427D01*
X161923094Y-97519057D01*
X161940175Y-97524067D01*
X161966855Y-97547172D01*
X161968042Y-97548541D01*
X161995518Y-97603402D01*
X161997163Y-97610960D01*
X162000000Y-97637331D01*
X162000000Y-107858170D01*
X161994975Y-107893114D01*
X161990570Y-107908112D01*
X161980939Y-107923101D01*
X161975932Y-107940175D01*
X161952827Y-107966855D01*
X161951458Y-107968042D01*
X161896597Y-107995518D01*
X161889039Y-107997163D01*
X161862668Y-108000000D01*
X154141830Y-108000000D01*
X154106889Y-107994975D01*
X154091890Y-107990570D01*
X154076902Y-107980940D01*
X154059824Y-107975932D01*
X154033144Y-107952827D01*
X154031957Y-107951458D01*
X154004477Y-107896583D01*
X154002832Y-107889021D01*
X154000000Y-107862668D01*
X154000000Y-107062133D01*
X154005022Y-107027200D01*
X154008933Y-107013881D01*
X154018571Y-106998883D01*
X154023595Y-106981775D01*
X154037068Y-106970100D01*
X154046706Y-106955104D01*
X154062925Y-106947696D01*
X154076400Y-106936021D01*
X154110253Y-106926081D01*
X154110257Y-106926079D01*
X154113570Y-106925603D01*
X154168700Y-106930143D01*
X154170591Y-106930743D01*
X154182075Y-106935453D01*
X154182727Y-106935547D01*
X154183107Y-106935876D01*
X154189389Y-106938453D01*
X154324473Y-107007284D01*
X154324475Y-107007284D01*
X154324478Y-107007286D01*
X154324486Y-107007289D01*
X154385769Y-107027200D01*
X154407451Y-107034245D01*
X154407455Y-107034246D01*
X154435112Y-107043232D01*
X154490418Y-107061203D01*
X154490421Y-107061203D01*
X154490426Y-107061205D01*
X154662759Y-107088500D01*
X154662760Y-107088500D01*
X154837240Y-107088500D01*
X154837241Y-107088500D01*
X155009574Y-107061205D01*
X155175516Y-107007288D01*
X155330981Y-106928074D01*
X155472139Y-106825517D01*
X155595517Y-106702139D01*
X155698074Y-106560981D01*
X155777288Y-106405516D01*
X155831205Y-106239574D01*
X155858500Y-106067241D01*
X155858500Y-105892759D01*
X155858500Y-105892753D01*
X155835257Y-105746007D01*
X155834057Y-105717605D01*
X155834307Y-105714158D01*
X155834815Y-105710234D01*
X155834665Y-105709241D01*
X155835161Y-105702441D01*
X155845680Y-105674346D01*
X155853835Y-105645481D01*
X155857804Y-105641969D01*
X155859662Y-105637008D01*
X155883687Y-105619070D01*
X155906160Y-105599189D01*
X155911392Y-105596734D01*
X155915101Y-105595616D01*
X155915649Y-105595208D01*
X155916703Y-105595133D01*
X155945966Y-105586318D01*
X155946327Y-105586265D01*
X155963618Y-105584942D01*
X156097703Y-105584102D01*
X156108622Y-105584516D01*
X156117167Y-105585218D01*
X156119590Y-105585913D01*
X156133022Y-105586753D01*
X156133046Y-105586522D01*
X156146009Y-105587588D01*
X156146113Y-105587628D01*
X156149112Y-105587883D01*
X156201345Y-105593499D01*
X156201362Y-105593500D01*
X156598635Y-105593500D01*
X156598638Y-105593500D01*
X156601120Y-105593233D01*
X156619088Y-105591301D01*
X156630142Y-105590114D01*
X156643390Y-105589404D01*
X156656609Y-105589404D01*
X156669859Y-105590114D01*
X156681859Y-105591403D01*
X156701343Y-105593498D01*
X156701362Y-105593500D01*
X157098635Y-105593500D01*
X157098638Y-105593500D01*
X157101120Y-105593233D01*
X157119088Y-105591301D01*
X157130142Y-105590114D01*
X157143390Y-105589404D01*
X157156609Y-105589404D01*
X157169859Y-105590114D01*
X157181859Y-105591403D01*
X157201343Y-105593498D01*
X157201362Y-105593500D01*
X157598635Y-105593500D01*
X157598638Y-105593500D01*
X157601120Y-105593233D01*
X157619088Y-105591301D01*
X157630142Y-105590114D01*
X157643390Y-105589404D01*
X157656609Y-105589404D01*
X157669859Y-105590114D01*
X157681859Y-105591403D01*
X157701343Y-105593498D01*
X157701362Y-105593500D01*
X157701368Y-105593500D01*
X158098638Y-105593500D01*
X158098643Y-105593500D01*
X158098646Y-105593499D01*
X158098654Y-105593499D01*
X158115969Y-105591637D01*
X158166918Y-105586201D01*
X158166927Y-105586289D01*
X158180072Y-105584798D01*
X158180519Y-105584751D01*
X158180712Y-105584786D01*
X158194444Y-105584053D01*
X158328010Y-105584890D01*
X158362907Y-105590131D01*
X158376224Y-105594132D01*
X158434762Y-105632274D01*
X158463278Y-105695227D01*
X158465135Y-105708133D01*
X158464872Y-105745191D01*
X158441500Y-105892753D01*
X158441500Y-106067245D01*
X158468795Y-106239578D01*
X158522685Y-106405440D01*
X158522711Y-106405517D01*
X158601924Y-106560978D01*
X158601929Y-106560987D01*
X158698132Y-106693399D01*
X158704477Y-106702132D01*
X158704481Y-106702137D01*
X158704486Y-106702143D01*
X158827855Y-106825512D01*
X158827858Y-106825514D01*
X158827862Y-106825518D01*
X158827867Y-106825522D01*
X158950984Y-106914971D01*
X158969019Y-106928074D01*
X159065561Y-106977265D01*
X159124483Y-107007288D01*
X159124486Y-107007289D01*
X159207455Y-107034246D01*
X159238410Y-107044304D01*
X159290418Y-107061203D01*
X159290421Y-107061203D01*
X159290426Y-107061205D01*
X159462759Y-107088500D01*
X159462760Y-107088500D01*
X159637240Y-107088500D01*
X159637241Y-107088500D01*
X159809574Y-107061205D01*
X159975516Y-107007288D01*
X160130981Y-106928074D01*
X160272139Y-106825517D01*
X160395517Y-106702139D01*
X160498074Y-106560981D01*
X160577288Y-106405516D01*
X160631205Y-106239574D01*
X160658500Y-106067241D01*
X160658500Y-105892759D01*
X160631205Y-105720426D01*
X160593599Y-105604685D01*
X160577289Y-105554486D01*
X160577288Y-105554483D01*
X160516573Y-105435325D01*
X160515343Y-105432592D01*
X160514832Y-105428894D01*
X160506548Y-105404586D01*
X160501853Y-105379584D01*
X160507540Y-105313369D01*
X160549686Y-105200373D01*
X160551451Y-105196318D01*
X160551908Y-105194946D01*
X160551988Y-105194203D01*
X160551989Y-105194201D01*
X160555591Y-105160692D01*
X160558499Y-105133654D01*
X160558500Y-105133637D01*
X160558500Y-104462329D01*
X160563523Y-104427393D01*
X160567927Y-104412395D01*
X160605672Y-104353644D01*
X160605700Y-104353619D01*
X160605699Y-104353619D01*
X160607041Y-104352456D01*
X160661920Y-104324977D01*
X160669479Y-104323333D01*
X160695832Y-104320500D01*
X161174574Y-104320500D01*
X161174576Y-104320500D01*
X161299326Y-104287074D01*
X161411174Y-104222498D01*
X161502498Y-104131174D01*
X161567074Y-104019326D01*
X161600500Y-103894576D01*
X161600500Y-103765424D01*
X161567074Y-103640674D01*
X161564845Y-103636814D01*
X161564521Y-103636253D01*
X161558417Y-103625678D01*
X161558417Y-103625677D01*
X161502502Y-103528832D01*
X161502499Y-103528829D01*
X161502498Y-103528826D01*
X161411174Y-103437502D01*
X161355250Y-103405214D01*
X161299327Y-103372926D01*
X161197446Y-103345628D01*
X161191190Y-103343951D01*
X161191183Y-103343949D01*
X161174580Y-103339500D01*
X161174576Y-103339500D01*
X160700330Y-103339500D01*
X160700325Y-103339499D01*
X160700323Y-103339500D01*
X160665389Y-103334475D01*
X160650390Y-103330070D01*
X160591644Y-103292327D01*
X160591615Y-103292293D01*
X160591614Y-103292293D01*
X160591613Y-103292291D01*
X160590457Y-103290958D01*
X160562977Y-103236083D01*
X160561332Y-103228521D01*
X160558500Y-103202168D01*
X160558500Y-102526359D01*
X160558499Y-102526356D01*
X160558499Y-102526345D01*
X160555157Y-102495270D01*
X160552696Y-102472384D01*
X160552460Y-102467967D01*
X160552302Y-102466873D01*
X160551990Y-102465809D01*
X160551989Y-102465799D01*
X160551987Y-102465795D01*
X160551987Y-102465792D01*
X160551977Y-102465766D01*
X160551188Y-102463075D01*
X160549682Y-102459614D01*
X160510370Y-102354215D01*
X160502870Y-102319735D01*
X160501056Y-102294360D01*
X160514255Y-102229223D01*
X160577286Y-102105521D01*
X160577289Y-102105513D01*
X160589965Y-102066500D01*
X160631205Y-101939574D01*
X160658500Y-101767241D01*
X160658500Y-101592759D01*
X160631205Y-101420426D01*
X160577288Y-101254484D01*
X160577288Y-101254483D01*
X160549856Y-101200646D01*
X160498074Y-101099019D01*
X160484971Y-101080984D01*
X160484969Y-101080981D01*
X160484969Y-101080980D01*
X160455240Y-101040063D01*
X160395522Y-100957867D01*
X160395518Y-100957862D01*
X160395514Y-100957858D01*
X160395512Y-100957855D01*
X160272143Y-100834486D01*
X160272138Y-100834482D01*
X160272137Y-100834481D01*
X160272132Y-100834477D01*
X160130984Y-100731928D01*
X160130983Y-100731927D01*
X160130981Y-100731926D01*
X160081175Y-100706548D01*
X159975516Y-100652711D01*
X159975512Y-100652709D01*
X159975489Y-100652701D01*
X159809577Y-100598795D01*
X159809578Y-100598795D01*
X159723407Y-100585147D01*
X159706173Y-100582417D01*
X159637245Y-100571500D01*
X159637241Y-100571500D01*
X159462759Y-100571500D01*
X159462755Y-100571500D01*
X159405314Y-100580598D01*
X159290420Y-100598795D01*
X159124558Y-100652685D01*
X159124481Y-100652711D01*
X158969020Y-100731924D01*
X158969011Y-100731929D01*
X158827884Y-100834464D01*
X158827855Y-100834486D01*
X158704486Y-100957855D01*
X158704464Y-100957884D01*
X158601929Y-101099011D01*
X158601924Y-101099020D01*
X158522711Y-101254481D01*
X158522685Y-101254558D01*
X158468795Y-101420420D01*
X158441500Y-101592753D01*
X158441500Y-101767245D01*
X158464742Y-101913988D01*
X158465942Y-101942388D01*
X158465689Y-101945850D01*
X158465184Y-101949764D01*
X158465332Y-101950755D01*
X158464838Y-101957555D01*
X158454317Y-101985652D01*
X158446163Y-102014518D01*
X158442195Y-102018027D01*
X158440338Y-102022989D01*
X158416302Y-102040934D01*
X158393832Y-102060813D01*
X158393831Y-102060813D01*
X158388598Y-102063268D01*
X158384892Y-102064385D01*
X158384352Y-102064789D01*
X158383312Y-102064862D01*
X158354117Y-102073667D01*
X158353773Y-102073718D01*
X158336363Y-102075057D01*
X158202291Y-102075895D01*
X158191368Y-102075481D01*
X158182826Y-102074779D01*
X158180426Y-102074091D01*
X158166975Y-102073249D01*
X158166950Y-102073475D01*
X158154031Y-102072415D01*
X158153930Y-102072376D01*
X158150923Y-102072120D01*
X158098662Y-102066500D01*
X158098654Y-102066500D01*
X158098638Y-102066500D01*
X157701362Y-102066500D01*
X157701355Y-102066500D01*
X157701353Y-102066500D01*
X157681863Y-102068595D01*
X157669855Y-102069886D01*
X157656604Y-102070596D01*
X157643396Y-102070596D01*
X157630144Y-102069886D01*
X157613945Y-102068144D01*
X157598645Y-102066500D01*
X157598644Y-102066500D01*
X157598638Y-102066500D01*
X157201362Y-102066500D01*
X157201355Y-102066500D01*
X157201353Y-102066500D01*
X157181863Y-102068595D01*
X157169855Y-102069886D01*
X157156604Y-102070596D01*
X157143396Y-102070596D01*
X157130144Y-102069886D01*
X157113945Y-102068144D01*
X157098645Y-102066500D01*
X157098644Y-102066500D01*
X157098638Y-102066500D01*
X156701362Y-102066500D01*
X156701355Y-102066500D01*
X156701353Y-102066500D01*
X156681863Y-102068595D01*
X156669855Y-102069886D01*
X156656604Y-102070596D01*
X156643396Y-102070596D01*
X156630144Y-102069886D01*
X156613945Y-102068144D01*
X156598645Y-102066500D01*
X156598644Y-102066500D01*
X156598638Y-102066500D01*
X156201362Y-102066500D01*
X156201345Y-102066500D01*
X156183665Y-102068401D01*
X156133083Y-102073796D01*
X156133074Y-102073710D01*
X156119932Y-102075199D01*
X156119487Y-102075247D01*
X156119288Y-102075210D01*
X156105560Y-102075944D01*
X155971994Y-102075109D01*
X155937088Y-102069866D01*
X155923775Y-102065866D01*
X155865235Y-102027724D01*
X155836719Y-101964762D01*
X155834863Y-101951856D01*
X155835126Y-101914813D01*
X155850361Y-101818625D01*
X155858500Y-101767244D01*
X155858500Y-101592759D01*
X155858499Y-101592753D01*
X155831205Y-101420426D01*
X155777288Y-101254484D01*
X155777288Y-101254483D01*
X155749856Y-101200646D01*
X155698074Y-101099019D01*
X155684971Y-101080984D01*
X155684969Y-101080981D01*
X155684969Y-101080980D01*
X155655240Y-101040063D01*
X155595522Y-100957867D01*
X155595518Y-100957862D01*
X155595514Y-100957858D01*
X155595512Y-100957855D01*
X155472143Y-100834486D01*
X155472138Y-100834482D01*
X155472137Y-100834481D01*
X155472132Y-100834477D01*
X155330984Y-100731928D01*
X155330983Y-100731927D01*
X155330981Y-100731926D01*
X155281175Y-100706548D01*
X155175516Y-100652711D01*
X155175512Y-100652709D01*
X155175489Y-100652701D01*
X155009577Y-100598795D01*
X155009578Y-100598795D01*
X154923407Y-100585147D01*
X154906173Y-100582417D01*
X154837245Y-100571500D01*
X154837241Y-100571500D01*
X154662759Y-100571500D01*
X154662755Y-100571500D01*
X154605314Y-100580598D01*
X154490420Y-100598795D01*
X154324509Y-100652701D01*
X154324486Y-100652709D01*
X154324482Y-100652711D01*
X154196183Y-100718083D01*
X154196182Y-100718085D01*
X154162774Y-100729469D01*
X154149132Y-100732031D01*
X154079611Y-100725059D01*
X154024896Y-100681607D01*
X154024895Y-100681605D01*
X154022972Y-100678877D01*
X154001987Y-100627687D01*
X154001665Y-100625742D01*
X154000000Y-100605489D01*
X154000000Y-99134660D01*
X154019685Y-99067621D01*
X154072489Y-99021866D01*
X154141647Y-99011922D01*
X154176689Y-99022411D01*
X154182205Y-99025000D01*
X154399351Y-99025000D01*
X154399363Y-99025000D01*
X154399377Y-99024999D01*
X154501282Y-99011581D01*
X154505345Y-99011315D01*
X154509332Y-99010522D01*
X154509341Y-99010521D01*
X154509342Y-99010521D01*
X154646175Y-98953843D01*
X154763679Y-98863679D01*
X154853843Y-98746175D01*
X154910521Y-98609342D01*
X154910521Y-98609340D01*
X154910521Y-98609333D01*
X154911315Y-98605345D01*
X154911582Y-98601281D01*
X154921626Y-98525000D01*
X154166835Y-98525000D01*
X154166811Y-98524995D01*
X156050001Y-98524995D01*
X156060493Y-98627694D01*
X156060494Y-98627696D01*
X156111596Y-98781914D01*
X156115641Y-98794119D01*
X156115643Y-98794124D01*
X156207684Y-98943345D01*
X156331654Y-99067315D01*
X156480875Y-99159356D01*
X156480880Y-99159358D01*
X156647299Y-99214504D01*
X156647300Y-99214504D01*
X156647302Y-99214505D01*
X156647309Y-99214506D01*
X156750019Y-99224999D01*
X156799999Y-99224998D01*
X156800000Y-99224998D01*
X156800000Y-98250000D01*
X156050001Y-98250000D01*
X156050001Y-98524995D01*
X154166811Y-98524995D01*
X154156978Y-98522909D01*
X154150468Y-98523915D01*
X154131886Y-98519973D01*
X154126058Y-98518261D01*
X154121625Y-98515411D01*
X154116502Y-98514325D01*
X154111999Y-98512325D01*
X154096912Y-98499525D01*
X154067285Y-98480480D01*
X154062745Y-98470537D01*
X154058721Y-98467123D01*
X154053759Y-98450854D01*
X154038267Y-98416921D01*
X154039915Y-98405462D01*
X154038339Y-98400292D01*
X154043072Y-98383526D01*
X154048219Y-98347763D01*
X154055562Y-98339290D01*
X154057324Y-98333051D01*
X154072970Y-98319205D01*
X154093980Y-98294965D01*
X154105976Y-98289997D01*
X154109648Y-98286749D01*
X154116305Y-98285720D01*
X154134667Y-98278117D01*
X154135996Y-98277828D01*
X154162332Y-98275000D01*
X154921626Y-98275000D01*
X154921626Y-98274998D01*
X154920308Y-98264992D01*
X154914084Y-98217715D01*
X154908986Y-98189358D01*
X154908999Y-98189231D01*
X154907770Y-98154224D01*
X154908230Y-98149971D01*
X154908229Y-98149966D01*
X154908230Y-98149962D01*
X154908232Y-98143300D01*
X154908978Y-98143300D01*
X154907792Y-98139260D01*
X154912813Y-98104325D01*
X154914679Y-98097969D01*
X154952451Y-98039189D01*
X155016006Y-98010162D01*
X155039191Y-98009023D01*
X155046198Y-98009335D01*
X155060847Y-98009990D01*
X155233262Y-97993010D01*
X155283103Y-97985617D01*
X155306945Y-97980875D01*
X155355837Y-97968629D01*
X155520059Y-97918813D01*
X155567517Y-97901832D01*
X155589975Y-97892529D01*
X155635518Y-97870988D01*
X155786860Y-97790094D01*
X155830080Y-97764189D01*
X155850292Y-97750684D01*
X155879437Y-97729068D01*
X155945009Y-97704944D01*
X156013215Y-97720099D01*
X156040985Y-97740985D01*
X156050000Y-97750000D01*
X156908171Y-97750000D01*
X156943106Y-97755023D01*
X156958104Y-97759427D01*
X157016855Y-97797172D01*
X157016879Y-97797200D01*
X157016882Y-97797202D01*
X157016883Y-97797204D01*
X157018042Y-97798541D01*
X157045518Y-97853402D01*
X157047163Y-97860960D01*
X157050000Y-97887331D01*
X157050000Y-98000000D01*
X157158171Y-98000000D01*
X157193106Y-98005023D01*
X157208104Y-98009427D01*
X157266855Y-98047172D01*
X157266879Y-98047200D01*
X157266882Y-98047202D01*
X157266883Y-98047204D01*
X157268042Y-98048541D01*
X157295518Y-98103402D01*
X157297163Y-98110960D01*
X157300000Y-98137331D01*
X157300000Y-99224999D01*
X157349960Y-99224999D01*
X157349972Y-99224999D01*
X157349986Y-99224998D01*
X157452697Y-99214505D01*
X157619119Y-99159358D01*
X157619124Y-99159356D01*
X157768345Y-99067315D01*
X157869170Y-98966490D01*
X157873879Y-98962021D01*
X157898990Y-98939410D01*
X157898991Y-98939411D01*
X157912997Y-98926799D01*
X157975987Y-98896571D01*
X158045321Y-98905196D01*
X158048559Y-98906601D01*
X158092884Y-98939127D01*
X158097351Y-98944280D01*
X158100920Y-98948590D01*
X158101672Y-98949541D01*
X158105157Y-98953283D01*
X158114706Y-98964297D01*
X158115877Y-98964768D01*
X158126764Y-98974446D01*
X158226348Y-99074030D01*
X158377262Y-99167115D01*
X158545574Y-99222887D01*
X158649455Y-99233500D01*
X159250544Y-99233499D01*
X159354426Y-99222887D01*
X159522738Y-99167115D01*
X159673652Y-99074030D01*
X159799030Y-98948652D01*
X159863854Y-98843553D01*
X159886465Y-98816463D01*
X159898087Y-98806010D01*
X159961051Y-98775823D01*
X159961654Y-98775725D01*
X160024907Y-98781914D01*
X160034077Y-98785331D01*
X160059672Y-98798426D01*
X160069657Y-98805098D01*
X160069661Y-98805100D01*
X160069664Y-98805102D01*
X160235000Y-98873587D01*
X160374148Y-98901265D01*
X160407545Y-98907908D01*
X160409780Y-98908409D01*
X160410518Y-98908500D01*
X160589480Y-98908500D01*
X160593600Y-98908500D01*
X160601449Y-98906118D01*
X160765000Y-98873587D01*
X160930336Y-98805102D01*
X161079135Y-98705678D01*
X161205678Y-98579135D01*
X161305102Y-98430336D01*
X161373587Y-98265000D01*
X161408500Y-98089479D01*
X161408500Y-97910521D01*
X161373587Y-97735000D01*
X161373585Y-97734995D01*
X161354086Y-97687921D01*
X161345360Y-97653734D01*
X161343875Y-97639928D01*
X161356278Y-97571172D01*
X161403883Y-97520035D01*
X161408423Y-97517341D01*
X161471670Y-97500000D01*
X161858170Y-97500000D01*
X161893106Y-97505023D01*
G37*
%TD.AperFunction*%
%TD*%
%TA.AperFunction,Conductor*%
%TO.N,+BATT*%
G36*
X145937945Y-89019685D02*
G01*
X145983700Y-89072489D01*
X145988954Y-89087378D01*
X145989188Y-89087301D01*
X145990588Y-89091508D01*
X145990590Y-89091513D01*
X145993234Y-89097897D01*
X145993521Y-89098589D01*
X145993525Y-89098599D01*
X146017240Y-89148165D01*
X146074216Y-89224274D01*
X146104830Y-89265170D01*
X146104834Y-89265174D01*
X146104839Y-89265180D01*
X146359825Y-89520166D01*
X146400719Y-89556900D01*
X146400725Y-89556905D01*
X146526413Y-89631480D01*
X146528484Y-89632338D01*
X146533487Y-89634410D01*
X146533507Y-89634417D01*
X146585329Y-89652700D01*
X146606129Y-89655690D01*
X146730000Y-89673500D01*
X146730003Y-89673500D01*
X149270002Y-89673500D01*
X149283724Y-89672764D01*
X149324897Y-89670557D01*
X149466513Y-89634410D01*
X149473584Y-89631481D01*
X149478768Y-89629001D01*
X149523165Y-89607759D01*
X149557393Y-89582136D01*
X149640170Y-89520170D01*
X149895170Y-89265170D01*
X149931900Y-89224281D01*
X149931902Y-89224277D01*
X149931905Y-89224274D01*
X150006480Y-89098586D01*
X150006481Y-89098584D01*
X150009410Y-89091513D01*
X150012502Y-89082748D01*
X150053366Y-89026077D01*
X150118384Y-89000494D01*
X150129439Y-89000000D01*
X152223500Y-89000000D01*
X152290539Y-89019685D01*
X152336294Y-89072489D01*
X152347500Y-89124000D01*
X152347500Y-89282035D01*
X152327815Y-89349074D01*
X152288598Y-89387573D01*
X152226348Y-89425969D01*
X152100970Y-89551347D01*
X152100968Y-89551350D01*
X152100541Y-89552043D01*
X152100123Y-89552418D01*
X152096489Y-89557015D01*
X152095703Y-89556393D01*
X152048591Y-89598764D01*
X151979627Y-89609983D01*
X151915547Y-89582136D01*
X151897739Y-89561578D01*
X151896798Y-89562323D01*
X151892316Y-89556655D01*
X151768345Y-89432684D01*
X151619124Y-89340643D01*
X151619119Y-89340641D01*
X151452697Y-89285494D01*
X151452690Y-89285493D01*
X151349986Y-89275000D01*
X151300000Y-89275000D01*
X151300000Y-91724999D01*
X151349972Y-91724999D01*
X151349986Y-91724998D01*
X151452697Y-91714505D01*
X151619119Y-91659358D01*
X151619124Y-91659356D01*
X151768345Y-91567315D01*
X151892316Y-91443344D01*
X151896798Y-91437677D01*
X151898991Y-91439411D01*
X151941357Y-91401265D01*
X152010314Y-91390008D01*
X152074410Y-91417818D01*
X152096334Y-91443106D01*
X152096489Y-91442985D01*
X152099183Y-91446392D01*
X152100545Y-91447963D01*
X152100970Y-91448652D01*
X152226348Y-91574030D01*
X152377262Y-91667115D01*
X152545574Y-91722887D01*
X152649455Y-91733500D01*
X153250544Y-91733499D01*
X153354426Y-91722887D01*
X153522738Y-91667115D01*
X153673652Y-91574030D01*
X153799030Y-91448652D01*
X153873210Y-91328386D01*
X153925156Y-91281665D01*
X153994119Y-91270442D01*
X154047636Y-91290383D01*
X154069664Y-91305102D01*
X154235000Y-91373587D01*
X154374148Y-91401265D01*
X154410516Y-91408499D01*
X154410520Y-91408500D01*
X154410521Y-91408500D01*
X154589480Y-91408500D01*
X154589481Y-91408499D01*
X154765000Y-91373587D01*
X154930336Y-91305102D01*
X155079135Y-91205678D01*
X155205678Y-91079135D01*
X155305102Y-90930336D01*
X155373587Y-90765000D01*
X155408500Y-90589479D01*
X155408500Y-90410521D01*
X155373587Y-90235000D01*
X155305102Y-90069664D01*
X155305100Y-90069661D01*
X155305098Y-90069657D01*
X155205678Y-89920865D01*
X155205675Y-89920861D01*
X155079138Y-89794324D01*
X155079134Y-89794321D01*
X154930342Y-89694901D01*
X154930332Y-89694896D01*
X154765000Y-89626413D01*
X154764992Y-89626411D01*
X154589483Y-89591500D01*
X154589479Y-89591500D01*
X154410521Y-89591500D01*
X154410516Y-89591500D01*
X154235007Y-89626411D01*
X154234999Y-89626413D01*
X154069665Y-89694897D01*
X154047634Y-89709617D01*
X153980956Y-89730492D01*
X153913577Y-89712005D01*
X153873209Y-89671609D01*
X153799032Y-89551351D01*
X153799029Y-89551347D01*
X153673653Y-89425971D01*
X153673652Y-89425970D01*
X153552499Y-89351242D01*
X153522740Y-89332886D01*
X153522735Y-89332884D01*
X153386393Y-89287705D01*
X153328948Y-89247932D01*
X153302125Y-89183416D01*
X153314440Y-89114641D01*
X153361983Y-89063441D01*
X153425395Y-89045999D01*
X153812424Y-89045999D01*
X153812427Y-89045999D01*
X153924052Y-89031305D01*
X153924055Y-89031303D01*
X153924061Y-89031303D01*
X153976845Y-89009438D01*
X154024297Y-89000000D01*
X154993907Y-89000000D01*
X155006061Y-89000597D01*
X155182941Y-89018018D01*
X155206769Y-89022757D01*
X155371001Y-89072576D01*
X155393453Y-89081877D01*
X155517470Y-89148165D01*
X155544798Y-89162772D01*
X155565008Y-89176276D01*
X155687684Y-89276953D01*
X155697666Y-89285145D01*
X155714854Y-89302333D01*
X155823722Y-89434989D01*
X155837227Y-89455201D01*
X155918121Y-89606543D01*
X155927424Y-89629001D01*
X155977240Y-89793224D01*
X155981982Y-89817065D01*
X155999403Y-89993938D01*
X156000000Y-90006092D01*
X156000000Y-93653012D01*
X155980315Y-93720051D01*
X155927511Y-93765806D01*
X155863403Y-93776370D01*
X155850000Y-93775001D01*
X155849974Y-93775000D01*
X155800000Y-93775000D01*
X155800000Y-96224999D01*
X155849972Y-96224999D01*
X155849984Y-96224998D01*
X155863397Y-96223628D01*
X155878471Y-96226430D01*
X155893647Y-96224248D01*
X155912122Y-96232685D01*
X155932090Y-96236397D01*
X155943256Y-96246903D01*
X155957203Y-96253273D01*
X155968183Y-96270358D01*
X155982975Y-96284277D01*
X155987251Y-96300030D01*
X155994977Y-96312051D01*
X156000000Y-96346986D01*
X156000000Y-96493907D01*
X155999403Y-96506061D01*
X155981982Y-96682934D01*
X155977240Y-96706775D01*
X155927424Y-96870998D01*
X155918121Y-96893456D01*
X155837227Y-97044798D01*
X155823722Y-97065010D01*
X155714854Y-97197666D01*
X155697666Y-97214854D01*
X155565010Y-97323722D01*
X155544798Y-97337227D01*
X155393456Y-97418121D01*
X155370998Y-97427424D01*
X155206776Y-97477240D01*
X155182934Y-97481982D01*
X155010519Y-97498962D01*
X154941873Y-97485943D01*
X154891163Y-97437877D01*
X154874489Y-97370026D01*
X154897146Y-97303932D01*
X154905139Y-97293799D01*
X154921626Y-97274999D01*
X154910521Y-97190653D01*
X154908418Y-97182803D01*
X154911669Y-97181931D01*
X154905866Y-97127995D01*
X154908991Y-97117350D01*
X154908418Y-97117197D01*
X154910521Y-97109346D01*
X154921626Y-97025000D01*
X154149000Y-97025000D01*
X154140314Y-97022449D01*
X154131353Y-97023738D01*
X154107312Y-97012759D01*
X154081961Y-97005315D01*
X154076033Y-96998474D01*
X154067797Y-96994713D01*
X154053507Y-96972478D01*
X154036206Y-96952511D01*
X154033918Y-96941996D01*
X154030023Y-96935935D01*
X154025000Y-96901000D01*
X154025000Y-96899000D01*
X154033156Y-96871220D01*
X154030271Y-96871014D01*
X154008353Y-96874166D01*
X153996100Y-96868570D01*
X153982668Y-96867610D01*
X153964941Y-96854340D01*
X153944797Y-96845141D01*
X153936296Y-96832898D01*
X153926734Y-96825740D01*
X153909819Y-96794763D01*
X153907819Y-96789401D01*
X153903299Y-96764349D01*
X154146205Y-96764349D01*
X154146998Y-96775435D01*
X154149000Y-96775000D01*
X154921626Y-96775000D01*
X154910521Y-96690659D01*
X154910521Y-96690657D01*
X154853843Y-96553824D01*
X154763679Y-96436320D01*
X154646175Y-96346156D01*
X154509341Y-96289478D01*
X154399377Y-96275000D01*
X154150000Y-96275000D01*
X154150000Y-96751428D01*
X154146205Y-96764349D01*
X153903299Y-96764349D01*
X153900000Y-96746066D01*
X153900000Y-96275000D01*
X153650622Y-96275000D01*
X153540658Y-96289478D01*
X153540657Y-96289478D01*
X153403821Y-96346157D01*
X153312963Y-96415876D01*
X153247794Y-96441070D01*
X153237477Y-96441500D01*
X152712798Y-96441500D01*
X152645759Y-96421815D01*
X152615970Y-96394962D01*
X151919989Y-95524986D01*
X154550001Y-95524986D01*
X154560494Y-95627697D01*
X154615641Y-95794119D01*
X154615643Y-95794124D01*
X154707684Y-95943345D01*
X154831654Y-96067315D01*
X154980875Y-96159356D01*
X154980880Y-96159358D01*
X155147302Y-96214505D01*
X155147309Y-96214506D01*
X155250019Y-96224999D01*
X155299999Y-96224998D01*
X155300000Y-96224998D01*
X155300000Y-95250000D01*
X154550001Y-95250000D01*
X154550001Y-95524986D01*
X151919989Y-95524986D01*
X151751815Y-95314769D01*
X151720880Y-95276100D01*
X151500000Y-95000000D01*
X151499998Y-94999998D01*
X151096318Y-94947344D01*
X151096282Y-94947340D01*
X150227472Y-94834017D01*
X150190699Y-94823251D01*
X150171127Y-94814038D01*
X150143030Y-94785941D01*
X150050225Y-94747500D01*
X150029773Y-94747500D01*
X150004688Y-94735692D01*
X149998453Y-94730162D01*
X149990460Y-94727815D01*
X149972706Y-94707326D01*
X149952416Y-94689330D01*
X149950160Y-94681307D01*
X149944705Y-94675011D01*
X149933499Y-94623500D01*
X149933499Y-94499462D01*
X149933499Y-94499456D01*
X149931002Y-94475013D01*
X154550000Y-94475013D01*
X154550000Y-94750000D01*
X155300000Y-94750000D01*
X155300000Y-93775000D01*
X155299999Y-93774999D01*
X155250029Y-93775000D01*
X155250011Y-93775001D01*
X155147302Y-93785494D01*
X154980880Y-93840641D01*
X154980875Y-93840643D01*
X154831654Y-93932684D01*
X154707684Y-94056654D01*
X154615643Y-94205875D01*
X154615641Y-94205880D01*
X154560494Y-94372302D01*
X154560493Y-94372309D01*
X154550000Y-94475013D01*
X149931002Y-94475013D01*
X149922887Y-94395574D01*
X149867115Y-94227262D01*
X149774030Y-94076348D01*
X149648652Y-93950970D01*
X149497738Y-93857885D01*
X149422292Y-93832885D01*
X149329427Y-93802113D01*
X149225546Y-93791500D01*
X148599462Y-93791500D01*
X148599446Y-93791501D01*
X148495572Y-93802113D01*
X148327264Y-93857884D01*
X148327259Y-93857886D01*
X148176346Y-93950971D01*
X148087681Y-94039637D01*
X148026358Y-94073122D01*
X147956666Y-94068138D01*
X147912319Y-94039637D01*
X147823653Y-93950971D01*
X147823652Y-93950970D01*
X147672738Y-93857885D01*
X147597292Y-93832885D01*
X147504427Y-93802113D01*
X147400546Y-93791500D01*
X146774462Y-93791500D01*
X146774446Y-93791501D01*
X146670572Y-93802113D01*
X146502264Y-93857884D01*
X146502259Y-93857886D01*
X146351346Y-93950971D01*
X146225970Y-94076347D01*
X146225967Y-94076351D01*
X146133478Y-94226299D01*
X146119979Y-94238440D01*
X146110363Y-94253844D01*
X146094540Y-94261321D01*
X146081530Y-94273024D01*
X146063608Y-94275940D01*
X146047193Y-94283698D01*
X146013194Y-94284143D01*
X146012568Y-94284245D01*
X146011902Y-94284160D01*
X145954135Y-94276625D01*
X145890204Y-94248435D01*
X145864635Y-94218764D01*
X145775346Y-94074005D01*
X145775343Y-94074001D01*
X145650999Y-93949657D01*
X145650998Y-93949656D01*
X145502216Y-93857886D01*
X145501331Y-93857340D01*
X145501324Y-93857337D01*
X145334401Y-93802025D01*
X145334402Y-93802025D01*
X145231376Y-93791500D01*
X144643632Y-93791500D01*
X144643616Y-93791501D01*
X144540594Y-93802026D01*
X144373673Y-93857338D01*
X144373668Y-93857340D01*
X144224002Y-93949655D01*
X144177563Y-93996094D01*
X144174283Y-93997884D01*
X144172306Y-94001052D01*
X144143866Y-94014492D01*
X144116239Y-94029578D01*
X144111526Y-94029777D01*
X144109136Y-94030907D01*
X144073845Y-94031369D01*
X143867112Y-94004404D01*
X143803182Y-93976214D01*
X143795469Y-93969127D01*
X143775999Y-93949657D01*
X143775998Y-93949656D01*
X143627216Y-93857886D01*
X143626331Y-93857340D01*
X143626324Y-93857337D01*
X143459401Y-93802025D01*
X143459402Y-93802025D01*
X143356376Y-93791500D01*
X142768632Y-93791500D01*
X142768616Y-93791501D01*
X142665595Y-93802026D01*
X142593639Y-93825869D01*
X142538599Y-93831120D01*
X140877001Y-93614390D01*
X140864452Y-93612092D01*
X140716584Y-93577059D01*
X140683151Y-93569138D01*
X140659094Y-93560748D01*
X140496220Y-93484367D01*
X140474389Y-93471238D01*
X140330563Y-93363170D01*
X140311882Y-93345861D01*
X140193184Y-93210676D01*
X140178429Y-93189902D01*
X140089879Y-93033318D01*
X140079685Y-93009977D01*
X140025007Y-92838579D01*
X140019801Y-92813646D01*
X140000656Y-92628314D01*
X140000000Y-92615572D01*
X140000000Y-91024986D01*
X150050001Y-91024986D01*
X150060494Y-91127697D01*
X150115641Y-91294119D01*
X150115643Y-91294124D01*
X150207684Y-91443345D01*
X150331654Y-91567315D01*
X150480875Y-91659356D01*
X150480880Y-91659358D01*
X150647302Y-91714505D01*
X150647309Y-91714506D01*
X150750019Y-91724999D01*
X150799999Y-91724998D01*
X150800000Y-91724998D01*
X150800000Y-90750000D01*
X150050001Y-90750000D01*
X150050001Y-91024986D01*
X140000000Y-91024986D01*
X140000000Y-90006092D01*
X140000597Y-89993938D01*
X140002461Y-89975013D01*
X150050000Y-89975013D01*
X150050000Y-90250000D01*
X150800000Y-90250000D01*
X150800000Y-89275000D01*
X150799999Y-89274999D01*
X150750029Y-89275000D01*
X150750011Y-89275001D01*
X150647302Y-89285494D01*
X150480880Y-89340641D01*
X150480875Y-89340643D01*
X150331654Y-89432684D01*
X150207684Y-89556654D01*
X150115643Y-89705875D01*
X150115641Y-89705880D01*
X150060494Y-89872302D01*
X150060493Y-89872309D01*
X150050000Y-89975013D01*
X140002461Y-89975013D01*
X140003968Y-89959710D01*
X140007794Y-89920865D01*
X140018018Y-89817056D01*
X140022757Y-89793232D01*
X140072577Y-89628994D01*
X140081875Y-89606549D01*
X140162775Y-89455195D01*
X140176272Y-89434995D01*
X140285149Y-89302328D01*
X140302328Y-89285149D01*
X140434995Y-89176272D01*
X140455195Y-89162775D01*
X140606549Y-89081875D01*
X140628994Y-89072577D01*
X140793232Y-89022757D01*
X140817056Y-89018018D01*
X140993939Y-89000597D01*
X141006093Y-89000000D01*
X145870906Y-89000000D01*
X145937945Y-89019685D01*
G37*
%TD.AperFunction*%
%TD*%
M02*
